<svg xmlns="http://www.w3.org/2000/svg" width="1920" height="1080" viewBox="0 0 1920 1080">
<!-- V0 proof: G: prefatory gutter 36px (clef + label) · Crimson · chosen container -->
<rect x="0" y="0" width="1920" height="1080" fill="#fff"/>

<g fill="#111"><text x="4" y="15.1" font-size="8.7" font-family="&#39;Crimson Pro Light&#39;, serif" fill="#8a8a8a">T1</text>
<g transform="translate(8.354 43.189) scale(7.90000)"><path d="M 2.28 1.552 c 0 -0.112 0.092 -0.204 0.204 -0.204 s 0.204 0.092 0.204 0.204 s -0.092 0.204 -0.204 0.204 s -0.204 -0.092 -0.204 -0.204 z M 2.28 0.552 c 0 -0.112 0.092 -0.204 0.204 -0.204 s 0.204 0.092 0.204 0.204 s -0.092 0.204 -0.204 0.204 s -0.204 -0.092 -0.204 -0.204 z M 0.98 0 c 0.688 0 1.172 0.352 1.172 1.004 c 0 1.052 -1.052 1.656 -2.064 2.084 c -0.012 0.012 -0.024 0.016 -0.036 0.016 c -0.028 0 -0.052 -0.024 -0.052 -0.052 c 0 -0.012 0.004 -0.024 0.016 -0.036 c 0.808 -0.472 1.648 -1.06 1.648 -1.972 c 0 -0.48 -0.252 -0.94 -0.684 -0.94 c -0.296 0 -0.516 0.216 -0.616 0.504 c 0.044 -0.02 0.088 -0.032 0.136 -0.032 c 0.22 0 0.4 0.18 0.4 0.4 c 0 0.232 -0.176 0.424 -0.4 0.424 c -0.24 0 -0.448 -0.188 -0.448 -0.424 c 0 -0.532 0.408 -0.976 0.928 -0.976 z"/></g>
<text x="4" y="121.9" font-size="8.7" font-family="&#39;Crimson Pro Light&#39;, serif" fill="#8a8a8a">T2</text>
<g transform="translate(8.354 149.989) scale(7.90000)"><path d="M 2.28 1.552 c 0 -0.112 0.092 -0.204 0.204 -0.204 s 0.204 0.092 0.204 0.204 s -0.092 0.204 -0.204 0.204 s -0.204 -0.092 -0.204 -0.204 z M 2.28 0.552 c 0 -0.112 0.092 -0.204 0.204 -0.204 s 0.204 0.092 0.204 0.204 s -0.092 0.204 -0.204 0.204 s -0.204 -0.092 -0.204 -0.204 z M 0.98 0 c 0.688 0 1.172 0.352 1.172 1.004 c 0 1.052 -1.052 1.656 -2.064 2.084 c -0.012 0.012 -0.024 0.016 -0.036 0.016 c -0.028 0 -0.052 -0.024 -0.052 -0.052 c 0 -0.012 0.004 -0.024 0.016 -0.036 c 0.808 -0.472 1.648 -1.06 1.648 -1.972 c 0 -0.48 -0.252 -0.94 -0.684 -0.94 c -0.296 0 -0.516 0.216 -0.616 0.504 c 0.044 -0.02 0.088 -0.032 0.136 -0.032 c 0.22 0 0.4 0.18 0.4 0.4 c 0 0.232 -0.176 0.424 -0.4 0.424 c -0.24 0 -0.448 -0.188 -0.448 -0.424 c 0 -0.532 0.408 -0.976 0.928 -0.976 z"/></g>
<text x="4" y="228.7" font-size="8.7" font-family="&#39;Crimson Pro Light&#39;, serif" fill="#8a8a8a">T3</text>
<g transform="translate(8.354 256.789) scale(7.90000)"><path d="M 2.28 1.552 c 0 -0.112 0.092 -0.204 0.204 -0.204 s 0.204 0.092 0.204 0.204 s -0.092 0.204 -0.204 0.204 s -0.204 -0.092 -0.204 -0.204 z M 2.28 0.552 c 0 -0.112 0.092 -0.204 0.204 -0.204 s 0.204 0.092 0.204 0.204 s -0.092 0.204 -0.204 0.204 s -0.204 -0.092 -0.204 -0.204 z M 0.98 0 c 0.688 0 1.172 0.352 1.172 1.004 c 0 1.052 -1.052 1.656 -2.064 2.084 c -0.012 0.012 -0.024 0.016 -0.036 0.016 c -0.028 0 -0.052 -0.024 -0.052 -0.052 c 0 -0.012 0.004 -0.024 0.016 -0.036 c 0.808 -0.472 1.648 -1.06 1.648 -1.972 c 0 -0.48 -0.252 -0.94 -0.684 -0.94 c -0.296 0 -0.516 0.216 -0.616 0.504 c 0.044 -0.02 0.088 -0.032 0.136 -0.032 c 0.22 0 0.4 0.18 0.4 0.4 c 0 0.232 -0.176 0.424 -0.4 0.424 c -0.24 0 -0.448 -0.188 -0.448 -0.424 c 0 -0.532 0.408 -0.976 0.928 -0.976 z"/></g>
<text x="4" y="335.5" font-size="8.7" font-family="&#39;Crimson Pro Light&#39;, serif" fill="#8a8a8a">T4</text>
<g transform="translate(8.354 363.589) scale(7.90000)"><path d="M 2.28 1.552 c 0 -0.112 0.092 -0.204 0.204 -0.204 s 0.204 0.092 0.204 0.204 s -0.092 0.204 -0.204 0.204 s -0.204 -0.092 -0.204 -0.204 z M 2.28 0.552 c 0 -0.112 0.092 -0.204 0.204 -0.204 s 0.204 0.092 0.204 0.204 s -0.092 0.204 -0.204 0.204 s -0.204 -0.092 -0.204 -0.204 z M 0.98 0 c 0.688 0 1.172 0.352 1.172 1.004 c 0 1.052 -1.052 1.656 -2.064 2.084 c -0.012 0.012 -0.024 0.016 -0.036 0.016 c -0.028 0 -0.052 -0.024 -0.052 -0.052 c 0 -0.012 0.004 -0.024 0.016 -0.036 c 0.808 -0.472 1.648 -1.06 1.648 -1.972 c 0 -0.48 -0.252 -0.94 -0.684 -0.94 c -0.296 0 -0.516 0.216 -0.616 0.504 c 0.044 -0.02 0.088 -0.032 0.136 -0.032 c 0.22 0 0.4 0.18 0.4 0.4 c 0 0.232 -0.176 0.424 -0.4 0.424 c -0.24 0 -0.448 -0.188 -0.448 -0.424 c 0 -0.532 0.408 -0.976 0.928 -0.976 z"/></g>
<text x="4" y="442.3" font-size="8.7" font-family="&#39;Crimson Pro Light&#39;, serif" fill="#8a8a8a">T5</text>
<g transform="translate(8.354 470.389) scale(7.90000)"><path d="M 2.28 1.552 c 0 -0.112 0.092 -0.204 0.204 -0.204 s 0.204 0.092 0.204 0.204 s -0.092 0.204 -0.204 0.204 s -0.204 -0.092 -0.204 -0.204 z M 2.28 0.552 c 0 -0.112 0.092 -0.204 0.204 -0.204 s 0.204 0.092 0.204 0.204 s -0.092 0.204 -0.204 0.204 s -0.204 -0.092 -0.204 -0.204 z M 0.98 0 c 0.688 0 1.172 0.352 1.172 1.004 c 0 1.052 -1.052 1.656 -2.064 2.084 c -0.012 0.012 -0.024 0.016 -0.036 0.016 c -0.028 0 -0.052 -0.024 -0.052 -0.052 c 0 -0.012 0.004 -0.024 0.016 -0.036 c 0.808 -0.472 1.648 -1.06 1.648 -1.972 c 0 -0.48 -0.252 -0.94 -0.684 -0.94 c -0.296 0 -0.516 0.216 -0.616 0.504 c 0.044 -0.02 0.088 -0.032 0.136 -0.032 c 0.22 0 0.4 0.18 0.4 0.4 c 0 0.232 -0.176 0.424 -0.4 0.424 c -0.24 0 -0.448 -0.188 -0.448 -0.424 c 0 -0.532 0.408 -0.976 0.928 -0.976 z"/></g>
<text x="4" y="549.1" font-size="8.7" font-family="&#39;Crimson Pro Light&#39;, serif" fill="#8a8a8a">T6</text>
<g transform="translate(8.354 577.189) scale(7.90000)"><path d="M 2.28 1.552 c 0 -0.112 0.092 -0.204 0.204 -0.204 s 0.204 0.092 0.204 0.204 s -0.092 0.204 -0.204 0.204 s -0.204 -0.092 -0.204 -0.204 z M 2.28 0.552 c 0 -0.112 0.092 -0.204 0.204 -0.204 s 0.204 0.092 0.204 0.204 s -0.092 0.204 -0.204 0.204 s -0.204 -0.092 -0.204 -0.204 z M 0.98 0 c 0.688 0 1.172 0.352 1.172 1.004 c 0 1.052 -1.052 1.656 -2.064 2.084 c -0.012 0.012 -0.024 0.016 -0.036 0.016 c -0.028 0 -0.052 -0.024 -0.052 -0.052 c 0 -0.012 0.004 -0.024 0.016 -0.036 c 0.808 -0.472 1.648 -1.06 1.648 -1.972 c 0 -0.48 -0.252 -0.94 -0.684 -0.94 c -0.296 0 -0.516 0.216 -0.616 0.504 c 0.044 -0.02 0.088 -0.032 0.136 -0.032 c 0.22 0 0.4 0.18 0.4 0.4 c 0 0.232 -0.176 0.424 -0.4 0.424 c -0.24 0 -0.448 -0.188 -0.448 -0.424 c 0 -0.532 0.408 -0.976 0.928 -0.976 z"/></g>
<text x="4" y="655.9" font-size="8.7" font-family="&#39;Crimson Pro Light&#39;, serif" fill="#8a8a8a">T7</text>
<g transform="translate(8.354 683.989) scale(7.90000)"><path d="M 2.28 1.552 c 0 -0.112 0.092 -0.204 0.204 -0.204 s 0.204 0.092 0.204 0.204 s -0.092 0.204 -0.204 0.204 s -0.204 -0.092 -0.204 -0.204 z M 2.28 0.552 c 0 -0.112 0.092 -0.204 0.204 -0.204 s 0.204 0.092 0.204 0.204 s -0.092 0.204 -0.204 0.204 s -0.204 -0.092 -0.204 -0.204 z M 0.98 0 c 0.688 0 1.172 0.352 1.172 1.004 c 0 1.052 -1.052 1.656 -2.064 2.084 c -0.012 0.012 -0.024 0.016 -0.036 0.016 c -0.028 0 -0.052 -0.024 -0.052 -0.052 c 0 -0.012 0.004 -0.024 0.016 -0.036 c 0.808 -0.472 1.648 -1.06 1.648 -1.972 c 0 -0.48 -0.252 -0.94 -0.684 -0.94 c -0.296 0 -0.516 0.216 -0.616 0.504 c 0.044 -0.02 0.088 -0.032 0.136 -0.032 c 0.22 0 0.4 0.18 0.4 0.4 c 0 0.232 -0.176 0.424 -0.4 0.424 c -0.24 0 -0.448 -0.188 -0.448 -0.424 c 0 -0.532 0.408 -0.976 0.928 -0.976 z"/></g>
<text x="4" y="762.7" font-size="8.7" font-family="&#39;Crimson Pro Light&#39;, serif" fill="#8a8a8a">T8</text>
<g transform="translate(8.354 790.789) scale(7.90000)"><path d="M 2.28 1.552 c 0 -0.112 0.092 -0.204 0.204 -0.204 s 0.204 0.092 0.204 0.204 s -0.092 0.204 -0.204 0.204 s -0.204 -0.092 -0.204 -0.204 z M 2.28 0.552 c 0 -0.112 0.092 -0.204 0.204 -0.204 s 0.204 0.092 0.204 0.204 s -0.092 0.204 -0.204 0.204 s -0.204 -0.092 -0.204 -0.204 z M 0.98 0 c 0.688 0 1.172 0.352 1.172 1.004 c 0 1.052 -1.052 1.656 -2.064 2.084 c -0.012 0.012 -0.024 0.016 -0.036 0.016 c -0.028 0 -0.052 -0.024 -0.052 -0.052 c 0 -0.012 0.004 -0.024 0.016 -0.036 c 0.808 -0.472 1.648 -1.06 1.648 -1.972 c 0 -0.48 -0.252 -0.94 -0.684 -0.94 c -0.296 0 -0.516 0.216 -0.616 0.504 c 0.044 -0.02 0.088 -0.032 0.136 -0.032 c 0.22 0 0.4 0.18 0.4 0.4 c 0 0.232 -0.176 0.424 -0.4 0.424 c -0.24 0 -0.448 -0.188 -0.448 -0.424 c 0 -0.532 0.408 -0.976 0.928 -0.976 z"/></g>
<text x="4" y="869.5" font-size="8.7" font-family="&#39;Crimson Pro Light&#39;, serif" fill="#8a8a8a">T9</text>
<g transform="translate(8.354 897.589) scale(7.90000)"><path d="M 2.28 1.552 c 0 -0.112 0.092 -0.204 0.204 -0.204 s 0.204 0.092 0.204 0.204 s -0.092 0.204 -0.204 0.204 s -0.204 -0.092 -0.204 -0.204 z M 2.28 0.552 c 0 -0.112 0.092 -0.204 0.204 -0.204 s 0.204 0.092 0.204 0.204 s -0.092 0.204 -0.204 0.204 s -0.204 -0.092 -0.204 -0.204 z M 0.98 0 c 0.688 0 1.172 0.352 1.172 1.004 c 0 1.052 -1.052 1.656 -2.064 2.084 c -0.012 0.012 -0.024 0.016 -0.036 0.016 c -0.028 0 -0.052 -0.024 -0.052 -0.052 c 0 -0.012 0.004 -0.024 0.016 -0.036 c 0.808 -0.472 1.648 -1.06 1.648 -1.972 c 0 -0.48 -0.252 -0.94 -0.684 -0.94 c -0.296 0 -0.516 0.216 -0.616 0.504 c 0.044 -0.02 0.088 -0.032 0.136 -0.032 c 0.22 0 0.4 0.18 0.4 0.4 c 0 0.232 -0.176 0.424 -0.4 0.424 c -0.24 0 -0.448 -0.188 -0.448 -0.424 c 0 -0.532 0.408 -0.976 0.928 -0.976 z"/></g>
<text x="4" y="976.3" font-size="8.7" font-family="&#39;Crimson Pro Light&#39;, serif" fill="#8a8a8a">T10</text>
<g transform="translate(8.354 1004.389) scale(7.90000)"><path d="M 2.28 1.552 c 0 -0.112 0.092 -0.204 0.204 -0.204 s 0.204 0.092 0.204 0.204 s -0.092 0.204 -0.204 0.204 s -0.204 -0.092 -0.204 -0.204 z M 2.28 0.552 c 0 -0.112 0.092 -0.204 0.204 -0.204 s 0.204 0.092 0.204 0.204 s -0.092 0.204 -0.204 0.204 s -0.204 -0.092 -0.204 -0.204 z M 0.98 0 c 0.688 0 1.172 0.352 1.172 1.004 c 0 1.052 -1.052 1.656 -2.064 2.084 c -0.012 0.012 -0.024 0.016 -0.036 0.016 c -0.028 0 -0.052 -0.024 -0.052 -0.052 c 0 -0.012 0.004 -0.024 0.016 -0.036 c 0.808 -0.472 1.648 -1.06 1.648 -1.972 c 0 -0.48 -0.252 -0.94 -0.684 -0.94 c -0.296 0 -0.516 0.216 -0.616 0.504 c 0.044 -0.02 0.088 -0.032 0.136 -0.032 c 0.22 0 0.4 0.18 0.4 0.4 c 0 0.232 -0.176 0.424 -0.4 0.424 c -0.24 0 -0.448 -0.188 -0.448 -0.424 c 0 -0.532 0.408 -0.976 0.928 -0.976 z"/></g></g>
<svg x="36" y="0" xmlns="http://www.w3.org/2000/svg" width="1884" height="1080" viewBox="0 0 1884 1080" style="background:#fff">
<rect x="0" y="0" width="1884" height="1080" fill="#fff"/>
<g fill="#111">
<rect x="0.00" y="74.80" width="1884.00" height="0.79"/>
<rect x="0.00" y="66.91" width="1884.00" height="0.79"/>
<rect x="0.00" y="59.00" width="1884.00" height="0.79"/>
<rect x="0.00" y="51.10" width="1884.00" height="0.79"/>
<rect x="0.00" y="43.20" width="1884.00" height="0.79"/>
<text x="86.3" y="23.1" font-size="7.7" font-family="&#39;Crimson Pro Light&#39;, serif" fill="#8a8a8a">unit 750.0 ms · beat 0.750 s (80 bpm) × 1</text>
<rect x="85.88" y="29.38" width="0.95" height="6.32"/>
<g transform="translate(82.242 36.162) scale(7.90000)"><path d="M 0.6784 0 c 0.1888 0 0.3616 0.0992 0.3616 0.304 c 0 0.2272 -0.1664 0.384 -0.3168 0.4736 c -0.1088 0.0672 -0.2336 0.1056 -0.3616 0.1056 c -0.1888 0 -0.3616 -0.0992 -0.3616 -0.304 c 0 -0.2272 0.1696 -0.384 0.32 -0.4736 c 0.1088 -0.0672 0.2304 -0.1056 0.3584 -0.1056 z"/></g>
<g transform="translate(199.992 91.462) scale(7.90000)"><path d="M 0.6784 0 c 0.1888 0 0.3616 0.0992 0.3616 0.304 c 0 0.2272 -0.1664 0.384 -0.3168 0.4736 c -0.1088 0.0672 -0.2336 0.1056 -0.3616 0.1056 c -0.1888 0 -0.3616 -0.0992 -0.3616 -0.304 c 0 -0.2272 0.1696 -0.384 0.32 -0.4736 c 0.1088 -0.0672 0.2304 -0.1056 0.3584 -0.1056 z"/></g>
<rect x="197.94" y="82.70" width="12.32" height="0.79"/>
<rect x="197.94" y="90.60" width="12.32" height="0.79"/>
<g transform="translate(317.742 63.812) scale(7.90000)"><path d="M 0.6784 0 c 0.1888 0 0.3616 0.0992 0.3616 0.304 c 0 0.2272 -0.1664 0.384 -0.3168 0.4736 c -0.1088 0.0672 -0.2336 0.1056 -0.3616 0.1056 c -0.1888 0 -0.3616 -0.0992 -0.3616 -0.304 c 0 -0.2272 0.1696 -0.384 0.32 -0.4736 c 0.1088 -0.0672 0.2304 -0.1056 0.3584 -0.1056 z"/></g>
<g transform="translate(435.492 36.162) scale(7.90000)"><path d="M 0.6784 0 c 0.1888 0 0.3616 0.0992 0.3616 0.304 c 0 0.2272 -0.1664 0.384 -0.3168 0.4736 c -0.1088 0.0672 -0.2336 0.1056 -0.3616 0.1056 c -0.1888 0 -0.3616 -0.0992 -0.3616 -0.304 c 0 -0.2272 0.1696 -0.384 0.32 -0.4736 c 0.1088 -0.0672 0.2304 -0.1056 0.3584 -0.1056 z"/></g>
<g transform="translate(553.242 91.462) scale(7.90000)"><path d="M 0.6784 0 c 0.1888 0 0.3616 0.0992 0.3616 0.304 c 0 0.2272 -0.1664 0.384 -0.3168 0.4736 c -0.1088 0.0672 -0.2336 0.1056 -0.3616 0.1056 c -0.1888 0 -0.3616 -0.0992 -0.3616 -0.304 c 0 -0.2272 0.1696 -0.384 0.32 -0.4736 c 0.1088 -0.0672 0.2304 -0.1056 0.3584 -0.1056 z"/></g>
<rect x="551.19" y="82.70" width="12.32" height="0.79"/>
<rect x="551.19" y="90.60" width="12.32" height="0.79"/>
<g transform="translate(670.992 63.812) scale(7.90000)"><path d="M 0.6784 0 c 0.1888 0 0.3616 0.0992 0.3616 0.304 c 0 0.2272 -0.1664 0.384 -0.3168 0.4736 c -0.1088 0.0672 -0.2336 0.1056 -0.3616 0.1056 c -0.1888 0 -0.3616 -0.0992 -0.3616 -0.304 c 0 -0.2272 0.1696 -0.384 0.32 -0.4736 c 0.1088 -0.0672 0.2304 -0.1056 0.3584 -0.1056 z"/></g>
<g transform="translate(788.742 36.162) scale(7.90000)"><path d="M 0.6784 0 c 0.1888 0 0.3616 0.0992 0.3616 0.304 c 0 0.2272 -0.1664 0.384 -0.3168 0.4736 c -0.1088 0.0672 -0.2336 0.1056 -0.3616 0.1056 c -0.1888 0 -0.3616 -0.0992 -0.3616 -0.304 c 0 -0.2272 0.1696 -0.384 0.32 -0.4736 c 0.1088 -0.0672 0.2304 -0.1056 0.3584 -0.1056 z"/></g>
<g transform="translate(906.492 91.462) scale(7.90000)"><path d="M 0.6784 0 c 0.1888 0 0.3616 0.0992 0.3616 0.304 c 0 0.2272 -0.1664 0.384 -0.3168 0.4736 c -0.1088 0.0672 -0.2336 0.1056 -0.3616 0.1056 c -0.1888 0 -0.3616 -0.0992 -0.3616 -0.304 c 0 -0.2272 0.1696 -0.384 0.32 -0.4736 c 0.1088 -0.0672 0.2304 -0.1056 0.3584 -0.1056 z"/></g>
<rect x="904.44" y="82.70" width="12.32" height="0.79"/>
<rect x="904.44" y="90.60" width="12.32" height="0.79"/>
<g transform="translate(1024.242 63.812) scale(7.90000)"><path d="M 0.6784 0 c 0.1888 0 0.3616 0.0992 0.3616 0.304 c 0 0.2272 -0.1664 0.384 -0.3168 0.4736 c -0.1088 0.0672 -0.2336 0.1056 -0.3616 0.1056 c -0.1888 0 -0.3616 -0.0992 -0.3616 -0.304 c 0 -0.2272 0.1696 -0.384 0.32 -0.4736 c 0.1088 -0.0672 0.2304 -0.1056 0.3584 -0.1056 z"/></g>
<g transform="translate(1141.992 36.162) scale(7.90000)"><path d="M 0.6784 0 c 0.1888 0 0.3616 0.0992 0.3616 0.304 c 0 0.2272 -0.1664 0.384 -0.3168 0.4736 c -0.1088 0.0672 -0.2336 0.1056 -0.3616 0.1056 c -0.1888 0 -0.3616 -0.0992 -0.3616 -0.304 c 0 -0.2272 0.1696 -0.384 0.32 -0.4736 c 0.1088 -0.0672 0.2304 -0.1056 0.3584 -0.1056 z"/></g>
<g transform="translate(1259.742 91.462) scale(7.90000)"><path d="M 0.6784 0 c 0.1888 0 0.3616 0.0992 0.3616 0.304 c 0 0.2272 -0.1664 0.384 -0.3168 0.4736 c -0.1088 0.0672 -0.2336 0.1056 -0.3616 0.1056 c -0.1888 0 -0.3616 -0.0992 -0.3616 -0.304 c 0 -0.2272 0.1696 -0.384 0.32 -0.4736 c 0.1088 -0.0672 0.2304 -0.1056 0.3584 -0.1056 z"/></g>
<rect x="1257.69" y="82.70" width="12.32" height="0.79"/>
<rect x="1257.69" y="90.60" width="12.32" height="0.79"/>
<g transform="translate(1377.492 63.812) scale(7.90000)"><path d="M 0.6784 0 c 0.1888 0 0.3616 0.0992 0.3616 0.304 c 0 0.2272 -0.1664 0.384 -0.3168 0.4736 c -0.1088 0.0672 -0.2336 0.1056 -0.3616 0.1056 c -0.1888 0 -0.3616 -0.0992 -0.3616 -0.304 c 0 -0.2272 0.1696 -0.384 0.32 -0.4736 c 0.1088 -0.0672 0.2304 -0.1056 0.3584 -0.1056 z"/></g>
<g transform="translate(1495.242 36.162) scale(7.90000)"><path d="M 0.6784 0 c 0.1888 0 0.3616 0.0992 0.3616 0.304 c 0 0.2272 -0.1664 0.384 -0.3168 0.4736 c -0.1088 0.0672 -0.2336 0.1056 -0.3616 0.1056 c -0.1888 0 -0.3616 -0.0992 -0.3616 -0.304 c 0 -0.2272 0.1696 -0.384 0.32 -0.4736 c 0.1088 -0.0672 0.2304 -0.1056 0.3584 -0.1056 z"/></g>
<g transform="translate(1612.992 91.462) scale(7.90000)"><path d="M 0.6784 0 c 0.1888 0 0.3616 0.0992 0.3616 0.304 c 0 0.2272 -0.1664 0.384 -0.3168 0.4736 c -0.1088 0.0672 -0.2336 0.1056 -0.3616 0.1056 c -0.1888 0 -0.3616 -0.0992 -0.3616 -0.304 c 0 -0.2272 0.1696 -0.384 0.32 -0.4736 c 0.1088 -0.0672 0.2304 -0.1056 0.3584 -0.1056 z"/></g>
<rect x="1610.94" y="82.70" width="12.32" height="0.79"/>
<rect x="1610.94" y="90.60" width="12.32" height="0.79"/>
<g transform="translate(1730.742 63.812) scale(7.90000)"><path d="M 0.6784 0 c 0.1888 0 0.3616 0.0992 0.3616 0.304 c 0 0.2272 -0.1664 0.384 -0.3168 0.4736 c -0.1088 0.0672 -0.2336 0.1056 -0.3616 0.1056 c -0.1888 0 -0.3616 -0.0992 -0.3616 -0.304 c 0 -0.2272 0.1696 -0.384 0.32 -0.4736 c 0.1088 -0.0672 0.2304 -0.1056 0.3584 -0.1056 z"/></g>
<g transform="translate(1848.492 99.362) scale(7.90000)"><path d="M 0.6784 0 c 0.1888 0 0.3616 0.0992 0.3616 0.304 c 0 0.2272 -0.1664 0.384 -0.3168 0.4736 c -0.1088 0.0672 -0.2336 0.1056 -0.3616 0.1056 c -0.1888 0 -0.3616 -0.0992 -0.3616 -0.304 c 0 -0.2272 0.1696 -0.384 0.32 -0.4736 c 0.1088 -0.0672 0.2304 -0.1056 0.3584 -0.1056 z"/></g>
<rect x="1846.44" y="82.70" width="12.32" height="0.79"/>
<rect x="1846.44" y="90.60" width="12.32" height="0.79"/>
<rect x="1846.44" y="98.50" width="12.32" height="0.79"/>
<rect x="82.24" y="40.72" width="1.03" height="27.65"/>
<rect x="207.12" y="58.33" width="1.03" height="35.55"/>
<rect x="324.87" y="38.58" width="1.03" height="27.65"/>
<rect x="435.49" y="40.72" width="1.03" height="27.65"/>
<rect x="560.37" y="58.33" width="1.03" height="35.55"/>
<rect x="678.12" y="38.58" width="1.03" height="27.65"/>
<rect x="788.74" y="40.72" width="1.03" height="27.65"/>
<rect x="913.62" y="58.33" width="1.03" height="35.55"/>
<rect x="1031.37" y="38.58" width="1.03" height="27.65"/>
<rect x="1141.99" y="40.72" width="1.03" height="27.65"/>
<rect x="1266.87" y="58.33" width="1.03" height="35.55"/>
<rect x="1384.62" y="38.58" width="1.03" height="27.65"/>
<rect x="1495.24" y="40.72" width="1.03" height="27.65"/>
<rect x="1620.12" y="58.33" width="1.03" height="35.55"/>
<rect x="1737.87" y="38.58" width="1.03" height="27.65"/>
<rect x="1855.62" y="58.33" width="1.03" height="43.45"/>
<circle cx="86.35" cy="31.75" r="1.58"/>
<circle cx="204.10" cy="102.85" r="1.58"/>
<circle cx="321.85" cy="79.15" r="1.58"/>
<circle cx="439.60" cy="31.75" r="1.58"/>
<circle cx="557.35" cy="102.85" r="1.58"/>
<circle cx="675.10" cy="79.15" r="1.58"/>
<circle cx="792.85" cy="31.75" r="1.58"/>
<circle cx="910.60" cy="102.85" r="1.58"/>
<circle cx="1028.35" cy="79.15" r="1.58"/>
<circle cx="1146.10" cy="31.75" r="1.58"/>
<circle cx="1263.85" cy="102.85" r="1.58"/>
<circle cx="1381.60" cy="79.15" r="1.58"/>
<circle cx="1499.35" cy="31.75" r="1.58"/>
<circle cx="1617.10" cy="102.85" r="1.58"/>
<circle cx="1734.85" cy="79.15" r="1.58"/>
<circle cx="1852.60" cy="110.75" r="1.58"/>
</g>
<g fill="#111">
<rect x="0.00" y="181.60" width="1884.00" height="0.79"/>
<rect x="0.00" y="173.70" width="1884.00" height="0.79"/>
<rect x="0.00" y="165.80" width="1884.00" height="0.79"/>
<rect x="0.00" y="157.90" width="1884.00" height="0.79"/>
<rect x="0.00" y="150.00" width="1884.00" height="0.79"/>
<text x="17.8" y="129.9" font-size="7.7" font-family="&#39;Crimson Pro Light&#39;, serif" fill="#8a8a8a">unit 750.0 ms · beat 0.750 s (80 bpm) × 1</text>
<rect x="17.36" y="136.18" width="0.95" height="6.32"/>
<g transform="translate(13.727 142.962) scale(7.90000)"><path d="M 0.6784 0 c 0.1888 0 0.3616 0.0992 0.3616 0.304 c 0 0.2272 -0.1664 0.384 -0.3168 0.4736 c -0.1088 0.0672 -0.2336 0.1056 -0.3616 0.1056 c -0.1888 0 -0.3616 -0.0992 -0.3616 -0.304 c 0 -0.2272 0.1696 -0.384 0.32 -0.4736 c 0.1088 -0.0672 0.2304 -0.1056 0.3584 -0.1056 z"/></g>
<g transform="translate(131.477 198.262) scale(7.90000)"><path d="M 0.6784 0 c 0.1888 0 0.3616 0.0992 0.3616 0.304 c 0 0.2272 -0.1664 0.384 -0.3168 0.4736 c -0.1088 0.0672 -0.2336 0.1056 -0.3616 0.1056 c -0.1888 0 -0.3616 -0.0992 -0.3616 -0.304 c 0 -0.2272 0.1696 -0.384 0.32 -0.4736 c 0.1088 -0.0672 0.2304 -0.1056 0.3584 -0.1056 z"/></g>
<rect x="129.42" y="189.50" width="12.32" height="0.79"/>
<rect x="129.42" y="197.40" width="12.32" height="0.79"/>
<g transform="translate(249.227 170.612) scale(7.90000)"><path d="M 0.6784 0 c 0.1888 0 0.3616 0.0992 0.3616 0.304 c 0 0.2272 -0.1664 0.384 -0.3168 0.4736 c -0.1088 0.0672 -0.2336 0.1056 -0.3616 0.1056 c -0.1888 0 -0.3616 -0.0992 -0.3616 -0.304 c 0 -0.2272 0.1696 -0.384 0.32 -0.4736 c 0.1088 -0.0672 0.2304 -0.1056 0.3584 -0.1056 z"/></g>
<g transform="translate(366.977 142.962) scale(7.90000)"><path d="M 0.6784 0 c 0.1888 0 0.3616 0.0992 0.3616 0.304 c 0 0.2272 -0.1664 0.384 -0.3168 0.4736 c -0.1088 0.0672 -0.2336 0.1056 -0.3616 0.1056 c -0.1888 0 -0.3616 -0.0992 -0.3616 -0.304 c 0 -0.2272 0.1696 -0.384 0.32 -0.4736 c 0.1088 -0.0672 0.2304 -0.1056 0.3584 -0.1056 z"/></g>
<g transform="translate(484.727 198.262) scale(7.90000)"><path d="M 0.6784 0 c 0.1888 0 0.3616 0.0992 0.3616 0.304 c 0 0.2272 -0.1664 0.384 -0.3168 0.4736 c -0.1088 0.0672 -0.2336 0.1056 -0.3616 0.1056 c -0.1888 0 -0.3616 -0.0992 -0.3616 -0.304 c 0 -0.2272 0.1696 -0.384 0.32 -0.4736 c 0.1088 -0.0672 0.2304 -0.1056 0.3584 -0.1056 z"/></g>
<rect x="482.67" y="189.50" width="12.32" height="0.79"/>
<rect x="482.67" y="197.40" width="12.32" height="0.79"/>
<g transform="translate(602.477 170.612) scale(7.90000)"><path d="M 0.6784 0 c 0.1888 0 0.3616 0.0992 0.3616 0.304 c 0 0.2272 -0.1664 0.384 -0.3168 0.4736 c -0.1088 0.0672 -0.2336 0.1056 -0.3616 0.1056 c -0.1888 0 -0.3616 -0.0992 -0.3616 -0.304 c 0 -0.2272 0.1696 -0.384 0.32 -0.4736 c 0.1088 -0.0672 0.2304 -0.1056 0.3584 -0.1056 z"/></g>
<g transform="translate(720.227 142.962) scale(7.90000)"><path d="M 0.6784 0 c 0.1888 0 0.3616 0.0992 0.3616 0.304 c 0 0.2272 -0.1664 0.384 -0.3168 0.4736 c -0.1088 0.0672 -0.2336 0.1056 -0.3616 0.1056 c -0.1888 0 -0.3616 -0.0992 -0.3616 -0.304 c 0 -0.2272 0.1696 -0.384 0.32 -0.4736 c 0.1088 -0.0672 0.2304 -0.1056 0.3584 -0.1056 z"/></g>
<g transform="translate(837.977 198.262) scale(7.90000)"><path d="M 0.6784 0 c 0.1888 0 0.3616 0.0992 0.3616 0.304 c 0 0.2272 -0.1664 0.384 -0.3168 0.4736 c -0.1088 0.0672 -0.2336 0.1056 -0.3616 0.1056 c -0.1888 0 -0.3616 -0.0992 -0.3616 -0.304 c 0 -0.2272 0.1696 -0.384 0.32 -0.4736 c 0.1088 -0.0672 0.2304 -0.1056 0.3584 -0.1056 z"/></g>
<rect x="835.92" y="189.50" width="12.32" height="0.79"/>
<rect x="835.92" y="197.40" width="12.32" height="0.79"/>
<g transform="translate(955.727 170.612) scale(7.90000)"><path d="M 0.6784 0 c 0.1888 0 0.3616 0.0992 0.3616 0.304 c 0 0.2272 -0.1664 0.384 -0.3168 0.4736 c -0.1088 0.0672 -0.2336 0.1056 -0.3616 0.1056 c -0.1888 0 -0.3616 -0.0992 -0.3616 -0.304 c 0 -0.2272 0.1696 -0.384 0.32 -0.4736 c 0.1088 -0.0672 0.2304 -0.1056 0.3584 -0.1056 z"/></g>
<g transform="translate(1073.477 142.962) scale(7.90000)"><path d="M 0.6784 0 c 0.1888 0 0.3616 0.0992 0.3616 0.304 c 0 0.2272 -0.1664 0.384 -0.3168 0.4736 c -0.1088 0.0672 -0.2336 0.1056 -0.3616 0.1056 c -0.1888 0 -0.3616 -0.0992 -0.3616 -0.304 c 0 -0.2272 0.1696 -0.384 0.32 -0.4736 c 0.1088 -0.0672 0.2304 -0.1056 0.3584 -0.1056 z"/></g>
<g transform="translate(1191.227 198.262) scale(7.90000)"><path d="M 0.6784 0 c 0.1888 0 0.3616 0.0992 0.3616 0.304 c 0 0.2272 -0.1664 0.384 -0.3168 0.4736 c -0.1088 0.0672 -0.2336 0.1056 -0.3616 0.1056 c -0.1888 0 -0.3616 -0.0992 -0.3616 -0.304 c 0 -0.2272 0.1696 -0.384 0.32 -0.4736 c 0.1088 -0.0672 0.2304 -0.1056 0.3584 -0.1056 z"/></g>
<rect x="1189.17" y="189.50" width="12.32" height="0.79"/>
<rect x="1189.17" y="197.40" width="12.32" height="0.79"/>
<g transform="translate(1308.977 170.612) scale(7.90000)"><path d="M 0.6784 0 c 0.1888 0 0.3616 0.0992 0.3616 0.304 c 0 0.2272 -0.1664 0.384 -0.3168 0.4736 c -0.1088 0.0672 -0.2336 0.1056 -0.3616 0.1056 c -0.1888 0 -0.3616 -0.0992 -0.3616 -0.304 c 0 -0.2272 0.1696 -0.384 0.32 -0.4736 c 0.1088 -0.0672 0.2304 -0.1056 0.3584 -0.1056 z"/></g>
<g transform="translate(1426.727 142.962) scale(7.90000)"><path d="M 0.6784 0 c 0.1888 0 0.3616 0.0992 0.3616 0.304 c 0 0.2272 -0.1664 0.384 -0.3168 0.4736 c -0.1088 0.0672 -0.2336 0.1056 -0.3616 0.1056 c -0.1888 0 -0.3616 -0.0992 -0.3616 -0.304 c 0 -0.2272 0.1696 -0.384 0.32 -0.4736 c 0.1088 -0.0672 0.2304 -0.1056 0.3584 -0.1056 z"/></g>
<g transform="translate(1544.477 198.262) scale(7.90000)"><path d="M 0.6784 0 c 0.1888 0 0.3616 0.0992 0.3616 0.304 c 0 0.2272 -0.1664 0.384 -0.3168 0.4736 c -0.1088 0.0672 -0.2336 0.1056 -0.3616 0.1056 c -0.1888 0 -0.3616 -0.0992 -0.3616 -0.304 c 0 -0.2272 0.1696 -0.384 0.32 -0.4736 c 0.1088 -0.0672 0.2304 -0.1056 0.3584 -0.1056 z"/></g>
<rect x="1542.42" y="189.50" width="12.32" height="0.79"/>
<rect x="1542.42" y="197.40" width="12.32" height="0.79"/>
<g transform="translate(1662.227 170.612) scale(7.90000)"><path d="M 0.6784 0 c 0.1888 0 0.3616 0.0992 0.3616 0.304 c 0 0.2272 -0.1664 0.384 -0.3168 0.4736 c -0.1088 0.0672 -0.2336 0.1056 -0.3616 0.1056 c -0.1888 0 -0.3616 -0.0992 -0.3616 -0.304 c 0 -0.2272 0.1696 -0.384 0.32 -0.4736 c 0.1088 -0.0672 0.2304 -0.1056 0.3584 -0.1056 z"/></g>
<g transform="translate(1779.977 142.962) scale(7.90000)"><path d="M 0.6784 0 c 0.1888 0 0.3616 0.0992 0.3616 0.304 c 0 0.2272 -0.1664 0.384 -0.3168 0.4736 c -0.1088 0.0672 -0.2336 0.1056 -0.3616 0.1056 c -0.1888 0 -0.3616 -0.0992 -0.3616 -0.304 c 0 -0.2272 0.1696 -0.384 0.32 -0.4736 c 0.1088 -0.0672 0.2304 -0.1056 0.3584 -0.1056 z"/></g>
<rect x="13.73" y="147.52" width="1.03" height="27.65"/>
<rect x="138.61" y="165.13" width="1.03" height="35.55"/>
<rect x="256.36" y="145.38" width="1.03" height="27.65"/>
<rect x="366.98" y="147.52" width="1.03" height="27.65"/>
<rect x="491.86" y="165.13" width="1.03" height="35.55"/>
<rect x="609.61" y="145.38" width="1.03" height="27.65"/>
<rect x="720.23" y="147.52" width="1.03" height="27.65"/>
<rect x="845.11" y="165.13" width="1.03" height="35.55"/>
<rect x="962.86" y="145.38" width="1.03" height="27.65"/>
<rect x="1073.48" y="147.52" width="1.03" height="27.65"/>
<rect x="1198.36" y="165.13" width="1.03" height="35.55"/>
<rect x="1316.11" y="145.38" width="1.03" height="27.65"/>
<rect x="1426.73" y="147.52" width="1.03" height="27.65"/>
<rect x="1551.61" y="165.13" width="1.03" height="35.55"/>
<rect x="1669.36" y="145.38" width="1.03" height="27.65"/>
<rect x="1779.98" y="147.52" width="1.03" height="27.65"/>
<circle cx="17.84" cy="138.55" r="1.58"/>
<circle cx="135.59" cy="209.65" r="1.58"/>
<circle cx="253.34" cy="185.95" r="1.58"/>
<circle cx="371.09" cy="138.55" r="1.58"/>
<circle cx="488.84" cy="209.65" r="1.58"/>
<circle cx="606.59" cy="185.95" r="1.58"/>
<circle cx="724.34" cy="138.55" r="1.58"/>
<circle cx="842.09" cy="209.65" r="1.58"/>
<circle cx="959.84" cy="185.95" r="1.58"/>
<circle cx="1077.59" cy="138.55" r="1.58"/>
<circle cx="1195.34" cy="209.65" r="1.58"/>
<circle cx="1313.09" cy="185.95" r="1.58"/>
<circle cx="1430.84" cy="138.55" r="1.58"/>
<circle cx="1548.59" cy="209.65" r="1.58"/>
<circle cx="1666.34" cy="185.95" r="1.58"/>
<circle cx="1784.09" cy="138.55" r="1.58"/>
</g>
<g fill="#111">
<rect x="0.00" y="288.41" width="1884.00" height="0.79"/>
<rect x="0.00" y="280.50" width="1884.00" height="0.79"/>
<rect x="0.00" y="272.61" width="1884.00" height="0.79"/>
<rect x="0.00" y="264.71" width="1884.00" height="0.79"/>
<rect x="0.00" y="256.81" width="1884.00" height="0.79"/>
<text x="54.2" y="236.7" font-size="7.7" font-family="&#39;Crimson Pro Light&#39;, serif" fill="#8a8a8a">unit 750.0 ms · beat 0.750 s (80 bpm) × 1</text>
<rect x="53.77" y="242.98" width="0.95" height="6.32"/>
<g transform="translate(50.136 249.762) scale(7.90000)"><path d="M 0.6784 0 c 0.1888 0 0.3616 0.0992 0.3616 0.304 c 0 0.2272 -0.1664 0.384 -0.3168 0.4736 c -0.1088 0.0672 -0.2336 0.1056 -0.3616 0.1056 c -0.1888 0 -0.3616 -0.0992 -0.3616 -0.304 c 0 -0.2272 0.1696 -0.384 0.32 -0.4736 c 0.1088 -0.0672 0.2304 -0.1056 0.3584 -0.1056 z"/></g>
<g transform="translate(167.886 305.062) scale(7.90000)"><path d="M 0.6784 0 c 0.1888 0 0.3616 0.0992 0.3616 0.304 c 0 0.2272 -0.1664 0.384 -0.3168 0.4736 c -0.1088 0.0672 -0.2336 0.1056 -0.3616 0.1056 c -0.1888 0 -0.3616 -0.0992 -0.3616 -0.304 c 0 -0.2272 0.1696 -0.384 0.32 -0.4736 c 0.1088 -0.0672 0.2304 -0.1056 0.3584 -0.1056 z"/></g>
<rect x="165.83" y="296.31" width="12.32" height="0.79"/>
<rect x="165.83" y="304.21" width="12.32" height="0.79"/>
<g transform="translate(285.636 277.412) scale(7.90000)"><path d="M 0.6784 0 c 0.1888 0 0.3616 0.0992 0.3616 0.304 c 0 0.2272 -0.1664 0.384 -0.3168 0.4736 c -0.1088 0.0672 -0.2336 0.1056 -0.3616 0.1056 c -0.1888 0 -0.3616 -0.0992 -0.3616 -0.304 c 0 -0.2272 0.1696 -0.384 0.32 -0.4736 c 0.1088 -0.0672 0.2304 -0.1056 0.3584 -0.1056 z"/></g>
<g transform="translate(403.386 249.762) scale(7.90000)"><path d="M 0.6784 0 c 0.1888 0 0.3616 0.0992 0.3616 0.304 c 0 0.2272 -0.1664 0.384 -0.3168 0.4736 c -0.1088 0.0672 -0.2336 0.1056 -0.3616 0.1056 c -0.1888 0 -0.3616 -0.0992 -0.3616 -0.304 c 0 -0.2272 0.1696 -0.384 0.32 -0.4736 c 0.1088 -0.0672 0.2304 -0.1056 0.3584 -0.1056 z"/></g>
<g transform="translate(521.136 305.062) scale(7.90000)"><path d="M 0.6784 0 c 0.1888 0 0.3616 0.0992 0.3616 0.304 c 0 0.2272 -0.1664 0.384 -0.3168 0.4736 c -0.1088 0.0672 -0.2336 0.1056 -0.3616 0.1056 c -0.1888 0 -0.3616 -0.0992 -0.3616 -0.304 c 0 -0.2272 0.1696 -0.384 0.32 -0.4736 c 0.1088 -0.0672 0.2304 -0.1056 0.3584 -0.1056 z"/></g>
<rect x="519.08" y="296.31" width="12.32" height="0.79"/>
<rect x="519.08" y="304.21" width="12.32" height="0.79"/>
<g transform="translate(638.886 277.412) scale(7.90000)"><path d="M 0.6784 0 c 0.1888 0 0.3616 0.0992 0.3616 0.304 c 0 0.2272 -0.1664 0.384 -0.3168 0.4736 c -0.1088 0.0672 -0.2336 0.1056 -0.3616 0.1056 c -0.1888 0 -0.3616 -0.0992 -0.3616 -0.304 c 0 -0.2272 0.1696 -0.384 0.32 -0.4736 c 0.1088 -0.0672 0.2304 -0.1056 0.3584 -0.1056 z"/></g>
<g transform="translate(756.636 249.762) scale(7.90000)"><path d="M 0.6784 0 c 0.1888 0 0.3616 0.0992 0.3616 0.304 c 0 0.2272 -0.1664 0.384 -0.3168 0.4736 c -0.1088 0.0672 -0.2336 0.1056 -0.3616 0.1056 c -0.1888 0 -0.3616 -0.0992 -0.3616 -0.304 c 0 -0.2272 0.1696 -0.384 0.32 -0.4736 c 0.1088 -0.0672 0.2304 -0.1056 0.3584 -0.1056 z"/></g>
<g transform="translate(874.386 305.062) scale(7.90000)"><path d="M 0.6784 0 c 0.1888 0 0.3616 0.0992 0.3616 0.304 c 0 0.2272 -0.1664 0.384 -0.3168 0.4736 c -0.1088 0.0672 -0.2336 0.1056 -0.3616 0.1056 c -0.1888 0 -0.3616 -0.0992 -0.3616 -0.304 c 0 -0.2272 0.1696 -0.384 0.32 -0.4736 c 0.1088 -0.0672 0.2304 -0.1056 0.3584 -0.1056 z"/></g>
<rect x="872.33" y="296.31" width="12.32" height="0.79"/>
<rect x="872.33" y="304.21" width="12.32" height="0.79"/>
<g transform="translate(992.136 277.412) scale(7.90000)"><path d="M 0.6784 0 c 0.1888 0 0.3616 0.0992 0.3616 0.304 c 0 0.2272 -0.1664 0.384 -0.3168 0.4736 c -0.1088 0.0672 -0.2336 0.1056 -0.3616 0.1056 c -0.1888 0 -0.3616 -0.0992 -0.3616 -0.304 c 0 -0.2272 0.1696 -0.384 0.32 -0.4736 c 0.1088 -0.0672 0.2304 -0.1056 0.3584 -0.1056 z"/></g>
<g transform="translate(1109.886 249.762) scale(7.90000)"><path d="M 0.6784 0 c 0.1888 0 0.3616 0.0992 0.3616 0.304 c 0 0.2272 -0.1664 0.384 -0.3168 0.4736 c -0.1088 0.0672 -0.2336 0.1056 -0.3616 0.1056 c -0.1888 0 -0.3616 -0.0992 -0.3616 -0.304 c 0 -0.2272 0.1696 -0.384 0.32 -0.4736 c 0.1088 -0.0672 0.2304 -0.1056 0.3584 -0.1056 z"/></g>
<g transform="translate(1227.636 305.062) scale(7.90000)"><path d="M 0.6784 0 c 0.1888 0 0.3616 0.0992 0.3616 0.304 c 0 0.2272 -0.1664 0.384 -0.3168 0.4736 c -0.1088 0.0672 -0.2336 0.1056 -0.3616 0.1056 c -0.1888 0 -0.3616 -0.0992 -0.3616 -0.304 c 0 -0.2272 0.1696 -0.384 0.32 -0.4736 c 0.1088 -0.0672 0.2304 -0.1056 0.3584 -0.1056 z"/></g>
<rect x="1225.58" y="296.31" width="12.32" height="0.79"/>
<rect x="1225.58" y="304.21" width="12.32" height="0.79"/>
<g transform="translate(1345.386 277.412) scale(7.90000)"><path d="M 0.6784 0 c 0.1888 0 0.3616 0.0992 0.3616 0.304 c 0 0.2272 -0.1664 0.384 -0.3168 0.4736 c -0.1088 0.0672 -0.2336 0.1056 -0.3616 0.1056 c -0.1888 0 -0.3616 -0.0992 -0.3616 -0.304 c 0 -0.2272 0.1696 -0.384 0.32 -0.4736 c 0.1088 -0.0672 0.2304 -0.1056 0.3584 -0.1056 z"/></g>
<g transform="translate(1463.136 249.762) scale(7.90000)"><path d="M 0.6784 0 c 0.1888 0 0.3616 0.0992 0.3616 0.304 c 0 0.2272 -0.1664 0.384 -0.3168 0.4736 c -0.1088 0.0672 -0.2336 0.1056 -0.3616 0.1056 c -0.1888 0 -0.3616 -0.0992 -0.3616 -0.304 c 0 -0.2272 0.1696 -0.384 0.32 -0.4736 c 0.1088 -0.0672 0.2304 -0.1056 0.3584 -0.1056 z"/></g>
<g transform="translate(1580.886 305.062) scale(7.90000)"><path d="M 0.6784 0 c 0.1888 0 0.3616 0.0992 0.3616 0.304 c 0 0.2272 -0.1664 0.384 -0.3168 0.4736 c -0.1088 0.0672 -0.2336 0.1056 -0.3616 0.1056 c -0.1888 0 -0.3616 -0.0992 -0.3616 -0.304 c 0 -0.2272 0.1696 -0.384 0.32 -0.4736 c 0.1088 -0.0672 0.2304 -0.1056 0.3584 -0.1056 z"/></g>
<rect x="1578.83" y="296.31" width="12.32" height="0.79"/>
<rect x="1578.83" y="304.21" width="12.32" height="0.79"/>
<g transform="translate(1698.636 277.412) scale(7.90000)"><path d="M 0.6784 0 c 0.1888 0 0.3616 0.0992 0.3616 0.304 c 0 0.2272 -0.1664 0.384 -0.3168 0.4736 c -0.1088 0.0672 -0.2336 0.1056 -0.3616 0.1056 c -0.1888 0 -0.3616 -0.0992 -0.3616 -0.304 c 0 -0.2272 0.1696 -0.384 0.32 -0.4736 c 0.1088 -0.0672 0.2304 -0.1056 0.3584 -0.1056 z"/></g>
<g transform="translate(1816.386 249.762) scale(7.90000)"><path d="M 0.6784 0 c 0.1888 0 0.3616 0.0992 0.3616 0.304 c 0 0.2272 -0.1664 0.384 -0.3168 0.4736 c -0.1088 0.0672 -0.2336 0.1056 -0.3616 0.1056 c -0.1888 0 -0.3616 -0.0992 -0.3616 -0.304 c 0 -0.2272 0.1696 -0.384 0.32 -0.4736 c 0.1088 -0.0672 0.2304 -0.1056 0.3584 -0.1056 z"/></g>
<rect x="50.14" y="254.32" width="1.03" height="27.65"/>
<rect x="175.02" y="271.93" width="1.03" height="35.55"/>
<rect x="292.77" y="252.18" width="1.03" height="27.65"/>
<rect x="403.39" y="254.32" width="1.03" height="27.65"/>
<rect x="528.27" y="271.93" width="1.03" height="35.55"/>
<rect x="646.02" y="252.18" width="1.03" height="27.65"/>
<rect x="756.64" y="254.32" width="1.03" height="27.65"/>
<rect x="881.52" y="271.93" width="1.03" height="35.55"/>
<rect x="999.27" y="252.18" width="1.03" height="27.65"/>
<rect x="1109.89" y="254.32" width="1.03" height="27.65"/>
<rect x="1234.77" y="271.93" width="1.03" height="35.55"/>
<rect x="1352.52" y="252.18" width="1.03" height="27.65"/>
<rect x="1463.14" y="254.32" width="1.03" height="27.65"/>
<rect x="1588.02" y="271.93" width="1.03" height="35.55"/>
<rect x="1705.77" y="252.18" width="1.03" height="27.65"/>
<rect x="1816.39" y="254.32" width="1.03" height="27.65"/>
<circle cx="54.24" cy="245.35" r="1.58"/>
<circle cx="171.99" cy="316.45" r="1.58"/>
<circle cx="289.74" cy="292.75" r="1.58"/>
<circle cx="407.49" cy="245.35" r="1.58"/>
<circle cx="525.24" cy="316.45" r="1.58"/>
<circle cx="642.99" cy="292.75" r="1.58"/>
<circle cx="760.74" cy="245.35" r="1.58"/>
<circle cx="878.49" cy="316.45" r="1.58"/>
<circle cx="996.24" cy="292.75" r="1.58"/>
<circle cx="1113.99" cy="245.35" r="1.58"/>
<circle cx="1231.74" cy="316.45" r="1.58"/>
<circle cx="1349.49" cy="292.75" r="1.58"/>
<circle cx="1467.24" cy="245.35" r="1.58"/>
<circle cx="1584.99" cy="316.45" r="1.58"/>
<circle cx="1702.74" cy="292.75" r="1.58"/>
<circle cx="1820.49" cy="245.35" r="1.58"/>
<text x="1852.6" y="236.7" font-size="7.7" font-family="&#39;Crimson Pro Light&#39;, serif" fill="#8a8a8a">unit 400.0 ms · beat 0.400 s (150 bpm) × 1</text>
<rect x="1852.13" y="242.98" width="0.95" height="6.32"/>
<g transform="translate(1848.492 281.362) scale(7.90000)"><path d="M 0.6784 0 c 0.1888 0 0.3616 0.0992 0.3616 0.304 c 0 0.2272 -0.1664 0.384 -0.3168 0.4736 c -0.1088 0.0672 -0.2336 0.1056 -0.3616 0.1056 c -0.1888 0 -0.3616 -0.0992 -0.3616 -0.304 c 0 -0.2272 0.1696 -0.384 0.32 -0.4736 c 0.1088 -0.0672 0.2304 -0.1056 0.3584 -0.1056 z"/></g>
<rect x="1855.62" y="256.13" width="1.03" height="27.65"/>
<circle cx="1852.60" cy="292.75" r="1.58"/>
</g>
<g fill="#111">
<rect x="0.00" y="395.20" width="1884.00" height="0.79"/>
<rect x="0.00" y="387.30" width="1884.00" height="0.79"/>
<rect x="0.00" y="379.40" width="1884.00" height="0.79"/>
<rect x="0.00" y="371.50" width="1884.00" height="0.79"/>
<rect x="0.00" y="363.60" width="1884.00" height="0.79"/>
<g transform="translate(105.792 384.212) scale(7.90000)"><path d="M 0.6784 0 c 0.1888 0 0.3616 0.0992 0.3616 0.304 c 0 0.2272 -0.1664 0.384 -0.3168 0.4736 c -0.1088 0.0672 -0.2336 0.1056 -0.3616 0.1056 c -0.1888 0 -0.3616 -0.0992 -0.3616 -0.304 c 0 -0.2272 0.1696 -0.384 0.32 -0.4736 c 0.1088 -0.0672 0.2304 -0.1056 0.3584 -0.1056 z"/></g>
<g transform="translate(223.542 356.562) scale(7.90000)"><path d="M 0.6784 0 c 0.1888 0 0.3616 0.0992 0.3616 0.304 c 0 0.2272 -0.1664 0.384 -0.3168 0.4736 c -0.1088 0.0672 -0.2336 0.1056 -0.3616 0.1056 c -0.1888 0 -0.3616 -0.0992 -0.3616 -0.304 c 0 -0.2272 0.1696 -0.384 0.32 -0.4736 c 0.1088 -0.0672 0.2304 -0.1056 0.3584 -0.1056 z"/></g>
<g transform="translate(341.292 411.862) scale(7.90000)"><path d="M 0.6784 0 c 0.1888 0 0.3616 0.0992 0.3616 0.304 c 0 0.2272 -0.1664 0.384 -0.3168 0.4736 c -0.1088 0.0672 -0.2336 0.1056 -0.3616 0.1056 c -0.1888 0 -0.3616 -0.0992 -0.3616 -0.304 c 0 -0.2272 0.1696 -0.384 0.32 -0.4736 c 0.1088 -0.0672 0.2304 -0.1056 0.3584 -0.1056 z"/></g>
<rect x="339.24" y="403.10" width="12.32" height="0.79"/>
<rect x="339.24" y="411.00" width="12.32" height="0.79"/>
<g transform="translate(459.042 384.212) scale(7.90000)"><path d="M 0.6784 0 c 0.1888 0 0.3616 0.0992 0.3616 0.304 c 0 0.2272 -0.1664 0.384 -0.3168 0.4736 c -0.1088 0.0672 -0.2336 0.1056 -0.3616 0.1056 c -0.1888 0 -0.3616 -0.0992 -0.3616 -0.304 c 0 -0.2272 0.1696 -0.384 0.32 -0.4736 c 0.1088 -0.0672 0.2304 -0.1056 0.3584 -0.1056 z"/></g>
<g transform="translate(576.792 356.562) scale(7.90000)"><path d="M 0.6784 0 c 0.1888 0 0.3616 0.0992 0.3616 0.304 c 0 0.2272 -0.1664 0.384 -0.3168 0.4736 c -0.1088 0.0672 -0.2336 0.1056 -0.3616 0.1056 c -0.1888 0 -0.3616 -0.0992 -0.3616 -0.304 c 0 -0.2272 0.1696 -0.384 0.32 -0.4736 c 0.1088 -0.0672 0.2304 -0.1056 0.3584 -0.1056 z"/></g>
<g transform="translate(694.542 411.862) scale(7.90000)"><path d="M 0.6784 0 c 0.1888 0 0.3616 0.0992 0.3616 0.304 c 0 0.2272 -0.1664 0.384 -0.3168 0.4736 c -0.1088 0.0672 -0.2336 0.1056 -0.3616 0.1056 c -0.1888 0 -0.3616 -0.0992 -0.3616 -0.304 c 0 -0.2272 0.1696 -0.384 0.32 -0.4736 c 0.1088 -0.0672 0.2304 -0.1056 0.3584 -0.1056 z"/></g>
<rect x="692.49" y="403.10" width="12.32" height="0.79"/>
<rect x="692.49" y="411.00" width="12.32" height="0.79"/>
<g transform="translate(812.292 384.212) scale(7.90000)"><path d="M 0.6784 0 c 0.1888 0 0.3616 0.0992 0.3616 0.304 c 0 0.2272 -0.1664 0.384 -0.3168 0.4736 c -0.1088 0.0672 -0.2336 0.1056 -0.3616 0.1056 c -0.1888 0 -0.3616 -0.0992 -0.3616 -0.304 c 0 -0.2272 0.1696 -0.384 0.32 -0.4736 c 0.1088 -0.0672 0.2304 -0.1056 0.3584 -0.1056 z"/></g>
<g transform="translate(930.042 356.562) scale(7.90000)"><path d="M 0.6784 0 c 0.1888 0 0.3616 0.0992 0.3616 0.304 c 0 0.2272 -0.1664 0.384 -0.3168 0.4736 c -0.1088 0.0672 -0.2336 0.1056 -0.3616 0.1056 c -0.1888 0 -0.3616 -0.0992 -0.3616 -0.304 c 0 -0.2272 0.1696 -0.384 0.32 -0.4736 c 0.1088 -0.0672 0.2304 -0.1056 0.3584 -0.1056 z"/></g>
<g transform="translate(1047.792 411.862) scale(7.90000)"><path d="M 0.6784 0 c 0.1888 0 0.3616 0.0992 0.3616 0.304 c 0 0.2272 -0.1664 0.384 -0.3168 0.4736 c -0.1088 0.0672 -0.2336 0.1056 -0.3616 0.1056 c -0.1888 0 -0.3616 -0.0992 -0.3616 -0.304 c 0 -0.2272 0.1696 -0.384 0.32 -0.4736 c 0.1088 -0.0672 0.2304 -0.1056 0.3584 -0.1056 z"/></g>
<rect x="1045.74" y="403.10" width="12.32" height="0.79"/>
<rect x="1045.74" y="411.00" width="12.32" height="0.79"/>
<g transform="translate(1165.542 384.212) scale(7.90000)"><path d="M 0.6784 0 c 0.1888 0 0.3616 0.0992 0.3616 0.304 c 0 0.2272 -0.1664 0.384 -0.3168 0.4736 c -0.1088 0.0672 -0.2336 0.1056 -0.3616 0.1056 c -0.1888 0 -0.3616 -0.0992 -0.3616 -0.304 c 0 -0.2272 0.1696 -0.384 0.32 -0.4736 c 0.1088 -0.0672 0.2304 -0.1056 0.3584 -0.1056 z"/></g>
<g transform="translate(1283.292 356.562) scale(7.90000)"><path d="M 0.6784 0 c 0.1888 0 0.3616 0.0992 0.3616 0.304 c 0 0.2272 -0.1664 0.384 -0.3168 0.4736 c -0.1088 0.0672 -0.2336 0.1056 -0.3616 0.1056 c -0.1888 0 -0.3616 -0.0992 -0.3616 -0.304 c 0 -0.2272 0.1696 -0.384 0.32 -0.4736 c 0.1088 -0.0672 0.2304 -0.1056 0.3584 -0.1056 z"/></g>
<g transform="translate(1401.042 411.862) scale(7.90000)"><path d="M 0.6784 0 c 0.1888 0 0.3616 0.0992 0.3616 0.304 c 0 0.2272 -0.1664 0.384 -0.3168 0.4736 c -0.1088 0.0672 -0.2336 0.1056 -0.3616 0.1056 c -0.1888 0 -0.3616 -0.0992 -0.3616 -0.304 c 0 -0.2272 0.1696 -0.384 0.32 -0.4736 c 0.1088 -0.0672 0.2304 -0.1056 0.3584 -0.1056 z"/></g>
<rect x="1398.99" y="403.10" width="12.32" height="0.79"/>
<rect x="1398.99" y="411.00" width="12.32" height="0.79"/>
<g transform="translate(1518.792 384.212) scale(7.90000)"><path d="M 0.6784 0 c 0.1888 0 0.3616 0.0992 0.3616 0.304 c 0 0.2272 -0.1664 0.384 -0.3168 0.4736 c -0.1088 0.0672 -0.2336 0.1056 -0.3616 0.1056 c -0.1888 0 -0.3616 -0.0992 -0.3616 -0.304 c 0 -0.2272 0.1696 -0.384 0.32 -0.4736 c 0.1088 -0.0672 0.2304 -0.1056 0.3584 -0.1056 z"/></g>
<g transform="translate(1636.542 356.562) scale(7.90000)"><path d="M 0.6784 0 c 0.1888 0 0.3616 0.0992 0.3616 0.304 c 0 0.2272 -0.1664 0.384 -0.3168 0.4736 c -0.1088 0.0672 -0.2336 0.1056 -0.3616 0.1056 c -0.1888 0 -0.3616 -0.0992 -0.3616 -0.304 c 0 -0.2272 0.1696 -0.384 0.32 -0.4736 c 0.1088 -0.0672 0.2304 -0.1056 0.3584 -0.1056 z"/></g>
<g transform="translate(1754.292 411.862) scale(7.90000)"><path d="M 0.6784 0 c 0.1888 0 0.3616 0.0992 0.3616 0.304 c 0 0.2272 -0.1664 0.384 -0.3168 0.4736 c -0.1088 0.0672 -0.2336 0.1056 -0.3616 0.1056 c -0.1888 0 -0.3616 -0.0992 -0.3616 -0.304 c 0 -0.2272 0.1696 -0.384 0.32 -0.4736 c 0.1088 -0.0672 0.2304 -0.1056 0.3584 -0.1056 z"/></g>
<rect x="1752.24" y="403.10" width="12.32" height="0.79"/>
<rect x="1752.24" y="411.00" width="12.32" height="0.79"/>
<rect x="112.92" y="358.98" width="1.03" height="27.65"/>
<rect x="223.54" y="361.12" width="1.03" height="27.65"/>
<rect x="348.42" y="378.73" width="1.03" height="35.55"/>
<rect x="466.17" y="358.98" width="1.03" height="27.65"/>
<rect x="576.79" y="361.12" width="1.03" height="27.65"/>
<rect x="701.67" y="378.73" width="1.03" height="35.55"/>
<rect x="819.42" y="358.98" width="1.03" height="27.65"/>
<rect x="930.04" y="361.12" width="1.03" height="27.65"/>
<rect x="1054.92" y="378.73" width="1.03" height="35.55"/>
<rect x="1172.67" y="358.98" width="1.03" height="27.65"/>
<rect x="1283.29" y="361.12" width="1.03" height="27.65"/>
<rect x="1408.17" y="378.73" width="1.03" height="35.55"/>
<rect x="1525.92" y="358.98" width="1.03" height="27.65"/>
<rect x="1636.54" y="361.12" width="1.03" height="27.65"/>
<rect x="1761.42" y="378.73" width="1.03" height="35.55"/>
<circle cx="109.90" cy="399.55" r="1.58"/>
<circle cx="227.65" cy="352.15" r="1.58"/>
<circle cx="345.40" cy="423.25" r="1.58"/>
<circle cx="463.15" cy="399.55" r="1.58"/>
<circle cx="580.90" cy="352.15" r="1.58"/>
<circle cx="698.65" cy="423.25" r="1.58"/>
<circle cx="816.40" cy="399.55" r="1.58"/>
<circle cx="934.15" cy="352.15" r="1.58"/>
<circle cx="1051.90" cy="423.25" r="1.58"/>
<circle cx="1169.65" cy="399.55" r="1.58"/>
<circle cx="1287.40" cy="352.15" r="1.58"/>
<circle cx="1405.15" cy="423.25" r="1.58"/>
<circle cx="1522.90" cy="399.55" r="1.58"/>
<circle cx="1640.65" cy="352.15" r="1.58"/>
<circle cx="1758.40" cy="423.25" r="1.58"/>
</g>
<g fill="#111">
<rect x="0.00" y="502.01" width="1884.00" height="0.79"/>
<rect x="0.00" y="494.11" width="1884.00" height="0.79"/>
<rect x="0.00" y="486.21" width="1884.00" height="0.79"/>
<rect x="0.00" y="478.31" width="1884.00" height="0.79"/>
<rect x="0.00" y="470.41" width="1884.00" height="0.79"/>
<g transform="translate(60.827 518.662) scale(7.90000)"><path d="M 0.6784 0 c 0.1888 0 0.3616 0.0992 0.3616 0.304 c 0 0.2272 -0.1664 0.384 -0.3168 0.4736 c -0.1088 0.0672 -0.2336 0.1056 -0.3616 0.1056 c -0.1888 0 -0.3616 -0.0992 -0.3616 -0.304 c 0 -0.2272 0.1696 -0.384 0.32 -0.4736 c 0.1088 -0.0672 0.2304 -0.1056 0.3584 -0.1056 z"/></g>
<rect x="58.77" y="509.91" width="12.32" height="0.79"/>
<rect x="58.77" y="517.81" width="12.32" height="0.79"/>
<rect x="67.96" y="485.53" width="1.03" height="35.55"/>
<g transform="translate(67.965 485.526) scale(7.90000)"><path d="M 0.064 0 v 1 h -0.064 v -1 h 0.064 z M 0.064 0 c 0 0.788 0.828 1.344 0.828 2.132 c 0 0.284 -0.06 0.564 -0.164 0.828 c -0.02 0.032 -0.052 0.048 -0.08 0.048 c -0.052 0 -0.104 -0.044 -0.092 -0.108 c 0.104 -0.244 0.168 -0.504 0.168 -0.768 c 0 -0.412 -0.376 -0.832 -0.66 -1.132 v -1 z"/></g>
<circle cx="64.94" cy="530.05" r="1.58"/>
<text x="182.7" y="450.3" font-size="7.7" font-family="&#39;Crimson Pro Light&#39;, serif" fill="#8a8a8a">unit 750.0 ms · beat 0.750 s (80 bpm) × 1</text>
<rect x="182.21" y="456.58" width="0.95" height="6.32"/>
<g transform="translate(178.577 491.012) scale(7.90000)"><path d="M 0.6784 0 c 0.1888 0 0.3616 0.0992 0.3616 0.304 c 0 0.2272 -0.1664 0.384 -0.3168 0.4736 c -0.1088 0.0672 -0.2336 0.1056 -0.3616 0.1056 c -0.1888 0 -0.3616 -0.0992 -0.3616 -0.304 c 0 -0.2272 0.1696 -0.384 0.32 -0.4736 c 0.1088 -0.0672 0.2304 -0.1056 0.3584 -0.1056 z"/></g>
<g transform="translate(296.327 463.362) scale(7.90000)"><path d="M 0.6784 0 c 0.1888 0 0.3616 0.0992 0.3616 0.304 c 0 0.2272 -0.1664 0.384 -0.3168 0.4736 c -0.1088 0.0672 -0.2336 0.1056 -0.3616 0.1056 c -0.1888 0 -0.3616 -0.0992 -0.3616 -0.304 c 0 -0.2272 0.1696 -0.384 0.32 -0.4736 c 0.1088 -0.0672 0.2304 -0.1056 0.3584 -0.1056 z"/></g>
<g transform="translate(414.077 518.662) scale(7.90000)"><path d="M 0.6784 0 c 0.1888 0 0.3616 0.0992 0.3616 0.304 c 0 0.2272 -0.1664 0.384 -0.3168 0.4736 c -0.1088 0.0672 -0.2336 0.1056 -0.3616 0.1056 c -0.1888 0 -0.3616 -0.0992 -0.3616 -0.304 c 0 -0.2272 0.1696 -0.384 0.32 -0.4736 c 0.1088 -0.0672 0.2304 -0.1056 0.3584 -0.1056 z"/></g>
<rect x="412.02" y="509.91" width="12.32" height="0.79"/>
<rect x="412.02" y="517.81" width="12.32" height="0.79"/>
<g transform="translate(531.827 491.012) scale(7.90000)"><path d="M 0.6784 0 c 0.1888 0 0.3616 0.0992 0.3616 0.304 c 0 0.2272 -0.1664 0.384 -0.3168 0.4736 c -0.1088 0.0672 -0.2336 0.1056 -0.3616 0.1056 c -0.1888 0 -0.3616 -0.0992 -0.3616 -0.304 c 0 -0.2272 0.1696 -0.384 0.32 -0.4736 c 0.1088 -0.0672 0.2304 -0.1056 0.3584 -0.1056 z"/></g>
<g transform="translate(649.577 463.362) scale(7.90000)"><path d="M 0.6784 0 c 0.1888 0 0.3616 0.0992 0.3616 0.304 c 0 0.2272 -0.1664 0.384 -0.3168 0.4736 c -0.1088 0.0672 -0.2336 0.1056 -0.3616 0.1056 c -0.1888 0 -0.3616 -0.0992 -0.3616 -0.304 c 0 -0.2272 0.1696 -0.384 0.32 -0.4736 c 0.1088 -0.0672 0.2304 -0.1056 0.3584 -0.1056 z"/></g>
<g transform="translate(767.327 518.662) scale(7.90000)"><path d="M 0.6784 0 c 0.1888 0 0.3616 0.0992 0.3616 0.304 c 0 0.2272 -0.1664 0.384 -0.3168 0.4736 c -0.1088 0.0672 -0.2336 0.1056 -0.3616 0.1056 c -0.1888 0 -0.3616 -0.0992 -0.3616 -0.304 c 0 -0.2272 0.1696 -0.384 0.32 -0.4736 c 0.1088 -0.0672 0.2304 -0.1056 0.3584 -0.1056 z"/></g>
<rect x="765.27" y="509.91" width="12.32" height="0.79"/>
<rect x="765.27" y="517.81" width="12.32" height="0.79"/>
<g transform="translate(885.077 491.012) scale(7.90000)"><path d="M 0.6784 0 c 0.1888 0 0.3616 0.0992 0.3616 0.304 c 0 0.2272 -0.1664 0.384 -0.3168 0.4736 c -0.1088 0.0672 -0.2336 0.1056 -0.3616 0.1056 c -0.1888 0 -0.3616 -0.0992 -0.3616 -0.304 c 0 -0.2272 0.1696 -0.384 0.32 -0.4736 c 0.1088 -0.0672 0.2304 -0.1056 0.3584 -0.1056 z"/></g>
<g transform="translate(1002.827 463.362) scale(7.90000)"><path d="M 0.6784 0 c 0.1888 0 0.3616 0.0992 0.3616 0.304 c 0 0.2272 -0.1664 0.384 -0.3168 0.4736 c -0.1088 0.0672 -0.2336 0.1056 -0.3616 0.1056 c -0.1888 0 -0.3616 -0.0992 -0.3616 -0.304 c 0 -0.2272 0.1696 -0.384 0.32 -0.4736 c 0.1088 -0.0672 0.2304 -0.1056 0.3584 -0.1056 z"/></g>
<g transform="translate(1120.577 518.662) scale(7.90000)"><path d="M 0.6784 0 c 0.1888 0 0.3616 0.0992 0.3616 0.304 c 0 0.2272 -0.1664 0.384 -0.3168 0.4736 c -0.1088 0.0672 -0.2336 0.1056 -0.3616 0.1056 c -0.1888 0 -0.3616 -0.0992 -0.3616 -0.304 c 0 -0.2272 0.1696 -0.384 0.32 -0.4736 c 0.1088 -0.0672 0.2304 -0.1056 0.3584 -0.1056 z"/></g>
<rect x="1118.52" y="509.91" width="12.32" height="0.79"/>
<rect x="1118.52" y="517.81" width="12.32" height="0.79"/>
<g transform="translate(1238.327 491.012) scale(7.90000)"><path d="M 0.6784 0 c 0.1888 0 0.3616 0.0992 0.3616 0.304 c 0 0.2272 -0.1664 0.384 -0.3168 0.4736 c -0.1088 0.0672 -0.2336 0.1056 -0.3616 0.1056 c -0.1888 0 -0.3616 -0.0992 -0.3616 -0.304 c 0 -0.2272 0.1696 -0.384 0.32 -0.4736 c 0.1088 -0.0672 0.2304 -0.1056 0.3584 -0.1056 z"/></g>
<g transform="translate(1356.077 463.362) scale(7.90000)"><path d="M 0.6784 0 c 0.1888 0 0.3616 0.0992 0.3616 0.304 c 0 0.2272 -0.1664 0.384 -0.3168 0.4736 c -0.1088 0.0672 -0.2336 0.1056 -0.3616 0.1056 c -0.1888 0 -0.3616 -0.0992 -0.3616 -0.304 c 0 -0.2272 0.1696 -0.384 0.32 -0.4736 c 0.1088 -0.0672 0.2304 -0.1056 0.3584 -0.1056 z"/></g>
<g transform="translate(1473.827 518.662) scale(7.90000)"><path d="M 0.6784 0 c 0.1888 0 0.3616 0.0992 0.3616 0.304 c 0 0.2272 -0.1664 0.384 -0.3168 0.4736 c -0.1088 0.0672 -0.2336 0.1056 -0.3616 0.1056 c -0.1888 0 -0.3616 -0.0992 -0.3616 -0.304 c 0 -0.2272 0.1696 -0.384 0.32 -0.4736 c 0.1088 -0.0672 0.2304 -0.1056 0.3584 -0.1056 z"/></g>
<rect x="1471.77" y="509.91" width="12.32" height="0.79"/>
<rect x="1471.77" y="517.81" width="12.32" height="0.79"/>
<g transform="translate(1591.577 491.012) scale(7.90000)"><path d="M 0.6784 0 c 0.1888 0 0.3616 0.0992 0.3616 0.304 c 0 0.2272 -0.1664 0.384 -0.3168 0.4736 c -0.1088 0.0672 -0.2336 0.1056 -0.3616 0.1056 c -0.1888 0 -0.3616 -0.0992 -0.3616 -0.304 c 0 -0.2272 0.1696 -0.384 0.32 -0.4736 c 0.1088 -0.0672 0.2304 -0.1056 0.3584 -0.1056 z"/></g>
<g transform="translate(1709.327 463.362) scale(7.90000)"><path d="M 0.6784 0 c 0.1888 0 0.3616 0.0992 0.3616 0.304 c 0 0.2272 -0.1664 0.384 -0.3168 0.4736 c -0.1088 0.0672 -0.2336 0.1056 -0.3616 0.1056 c -0.1888 0 -0.3616 -0.0992 -0.3616 -0.304 c 0 -0.2272 0.1696 -0.384 0.32 -0.4736 c 0.1088 -0.0672 0.2304 -0.1056 0.3584 -0.1056 z"/></g>
<g transform="translate(1827.077 518.662) scale(7.90000)"><path d="M 0.6784 0 c 0.1888 0 0.3616 0.0992 0.3616 0.304 c 0 0.2272 -0.1664 0.384 -0.3168 0.4736 c -0.1088 0.0672 -0.2336 0.1056 -0.3616 0.1056 c -0.1888 0 -0.3616 -0.0992 -0.3616 -0.304 c 0 -0.2272 0.1696 -0.384 0.32 -0.4736 c 0.1088 -0.0672 0.2304 -0.1056 0.3584 -0.1056 z"/></g>
<rect x="1825.02" y="509.91" width="12.32" height="0.79"/>
<rect x="1825.02" y="517.81" width="12.32" height="0.79"/>
<rect x="185.71" y="465.78" width="1.03" height="27.65"/>
<rect x="296.33" y="467.92" width="1.03" height="27.65"/>
<rect x="421.21" y="485.53" width="1.03" height="35.55"/>
<rect x="538.96" y="465.78" width="1.03" height="27.65"/>
<rect x="649.58" y="467.92" width="1.03" height="27.65"/>
<rect x="774.46" y="485.53" width="1.03" height="35.55"/>
<rect x="892.21" y="465.78" width="1.03" height="27.65"/>
<rect x="1002.83" y="467.92" width="1.03" height="27.65"/>
<rect x="1127.71" y="485.53" width="1.03" height="35.55"/>
<rect x="1245.46" y="465.78" width="1.03" height="27.65"/>
<rect x="1356.08" y="467.92" width="1.03" height="27.65"/>
<rect x="1480.96" y="485.53" width="1.03" height="35.55"/>
<rect x="1598.71" y="465.78" width="1.03" height="27.65"/>
<rect x="1709.33" y="467.92" width="1.03" height="27.65"/>
<rect x="1834.21" y="485.53" width="1.03" height="35.55"/>
<circle cx="182.69" cy="506.35" r="1.58"/>
<circle cx="300.44" cy="458.95" r="1.58"/>
<circle cx="418.19" cy="530.05" r="1.58"/>
<circle cx="535.94" cy="506.35" r="1.58"/>
<circle cx="653.69" cy="458.95" r="1.58"/>
<circle cx="771.44" cy="530.05" r="1.58"/>
<circle cx="889.19" cy="506.35" r="1.58"/>
<circle cx="1006.94" cy="458.95" r="1.58"/>
<circle cx="1124.69" cy="530.05" r="1.58"/>
<circle cx="1242.44" cy="506.35" r="1.58"/>
<circle cx="1360.19" cy="458.95" r="1.58"/>
<circle cx="1477.94" cy="530.05" r="1.58"/>
<circle cx="1595.69" cy="506.35" r="1.58"/>
<circle cx="1713.44" cy="458.95" r="1.58"/>
<circle cx="1831.19" cy="530.05" r="1.58"/>
<text x="1852.6" y="450.3" font-size="7.7" font-family="&#39;Crimson Pro Light&#39;, serif" fill="#8a8a8a">unit 400.0 ms · beat 0.400 s (150 bpm) × 1</text>
<rect x="1852.13" y="456.58" width="0.95" height="6.32"/>
<g transform="translate(1848.492 479.162) scale(7.90000)"><path d="M 0.6784 0 c 0.1888 0 0.3616 0.0992 0.3616 0.304 c 0 0.2272 -0.1664 0.384 -0.3168 0.4736 c -0.1088 0.0672 -0.2336 0.1056 -0.3616 0.1056 c -0.1888 0 -0.3616 -0.0992 -0.3616 -0.304 c 0 -0.2272 0.1696 -0.384 0.32 -0.4736 c 0.1088 -0.0672 0.2304 -0.1056 0.3584 -0.1056 z"/></g>
<rect x="1848.49" y="483.72" width="1.03" height="27.65"/>
<circle cx="1852.60" cy="474.75" r="1.58"/>
</g>
<g fill="#111">
<rect x="0.00" y="608.80" width="1884.00" height="0.79"/>
<rect x="0.00" y="600.90" width="1884.00" height="0.79"/>
<rect x="0.00" y="593.00" width="1884.00" height="0.79"/>
<rect x="0.00" y="585.11" width="1884.00" height="0.79"/>
<rect x="0.00" y="577.21" width="1884.00" height="0.79"/>
<text x="27.5" y="557.1" font-size="7.7" font-family="&#39;Crimson Pro Light&#39;, serif" fill="#8a8a8a">unit 750.0 ms · beat 0.750 s (80 bpm) × 1</text>
<rect x="27.00" y="563.38" width="0.95" height="6.32"/>
<g transform="translate(23.367 625.462) scale(7.90000)"><path d="M 0.6784 0 c 0.1888 0 0.3616 0.0992 0.3616 0.304 c 0 0.2272 -0.1664 0.384 -0.3168 0.4736 c -0.1088 0.0672 -0.2336 0.1056 -0.3616 0.1056 c -0.1888 0 -0.3616 -0.0992 -0.3616 -0.304 c 0 -0.2272 0.1696 -0.384 0.32 -0.4736 c 0.1088 -0.0672 0.2304 -0.1056 0.3584 -0.1056 z"/></g>
<rect x="21.31" y="616.71" width="12.32" height="0.79"/>
<rect x="21.31" y="624.61" width="12.32" height="0.79"/>
<g transform="translate(141.117 597.812) scale(7.90000)"><path d="M 0.6784 0 c 0.1888 0 0.3616 0.0992 0.3616 0.304 c 0 0.2272 -0.1664 0.384 -0.3168 0.4736 c -0.1088 0.0672 -0.2336 0.1056 -0.3616 0.1056 c -0.1888 0 -0.3616 -0.0992 -0.3616 -0.304 c 0 -0.2272 0.1696 -0.384 0.32 -0.4736 c 0.1088 -0.0672 0.2304 -0.1056 0.3584 -0.1056 z"/></g>
<g transform="translate(258.867 570.162) scale(7.90000)"><path d="M 0.6784 0 c 0.1888 0 0.3616 0.0992 0.3616 0.304 c 0 0.2272 -0.1664 0.384 -0.3168 0.4736 c -0.1088 0.0672 -0.2336 0.1056 -0.3616 0.1056 c -0.1888 0 -0.3616 -0.0992 -0.3616 -0.304 c 0 -0.2272 0.1696 -0.384 0.32 -0.4736 c 0.1088 -0.0672 0.2304 -0.1056 0.3584 -0.1056 z"/></g>
<g transform="translate(376.617 625.462) scale(7.90000)"><path d="M 0.6784 0 c 0.1888 0 0.3616 0.0992 0.3616 0.304 c 0 0.2272 -0.1664 0.384 -0.3168 0.4736 c -0.1088 0.0672 -0.2336 0.1056 -0.3616 0.1056 c -0.1888 0 -0.3616 -0.0992 -0.3616 -0.304 c 0 -0.2272 0.1696 -0.384 0.32 -0.4736 c 0.1088 -0.0672 0.2304 -0.1056 0.3584 -0.1056 z"/></g>
<rect x="374.56" y="616.71" width="12.32" height="0.79"/>
<rect x="374.56" y="624.61" width="12.32" height="0.79"/>
<g transform="translate(494.367 597.812) scale(7.90000)"><path d="M 0.6784 0 c 0.1888 0 0.3616 0.0992 0.3616 0.304 c 0 0.2272 -0.1664 0.384 -0.3168 0.4736 c -0.1088 0.0672 -0.2336 0.1056 -0.3616 0.1056 c -0.1888 0 -0.3616 -0.0992 -0.3616 -0.304 c 0 -0.2272 0.1696 -0.384 0.32 -0.4736 c 0.1088 -0.0672 0.2304 -0.1056 0.3584 -0.1056 z"/></g>
<g transform="translate(612.117 570.162) scale(7.90000)"><path d="M 0.6784 0 c 0.1888 0 0.3616 0.0992 0.3616 0.304 c 0 0.2272 -0.1664 0.384 -0.3168 0.4736 c -0.1088 0.0672 -0.2336 0.1056 -0.3616 0.1056 c -0.1888 0 -0.3616 -0.0992 -0.3616 -0.304 c 0 -0.2272 0.1696 -0.384 0.32 -0.4736 c 0.1088 -0.0672 0.2304 -0.1056 0.3584 -0.1056 z"/></g>
<g transform="translate(729.867 625.462) scale(7.90000)"><path d="M 0.6784 0 c 0.1888 0 0.3616 0.0992 0.3616 0.304 c 0 0.2272 -0.1664 0.384 -0.3168 0.4736 c -0.1088 0.0672 -0.2336 0.1056 -0.3616 0.1056 c -0.1888 0 -0.3616 -0.0992 -0.3616 -0.304 c 0 -0.2272 0.1696 -0.384 0.32 -0.4736 c 0.1088 -0.0672 0.2304 -0.1056 0.3584 -0.1056 z"/></g>
<rect x="727.81" y="616.71" width="12.32" height="0.79"/>
<rect x="727.81" y="624.61" width="12.32" height="0.79"/>
<g transform="translate(847.617 597.812) scale(7.90000)"><path d="M 0.6784 0 c 0.1888 0 0.3616 0.0992 0.3616 0.304 c 0 0.2272 -0.1664 0.384 -0.3168 0.4736 c -0.1088 0.0672 -0.2336 0.1056 -0.3616 0.1056 c -0.1888 0 -0.3616 -0.0992 -0.3616 -0.304 c 0 -0.2272 0.1696 -0.384 0.32 -0.4736 c 0.1088 -0.0672 0.2304 -0.1056 0.3584 -0.1056 z"/></g>
<g transform="translate(965.367 570.162) scale(7.90000)"><path d="M 0.6784 0 c 0.1888 0 0.3616 0.0992 0.3616 0.304 c 0 0.2272 -0.1664 0.384 -0.3168 0.4736 c -0.1088 0.0672 -0.2336 0.1056 -0.3616 0.1056 c -0.1888 0 -0.3616 -0.0992 -0.3616 -0.304 c 0 -0.2272 0.1696 -0.384 0.32 -0.4736 c 0.1088 -0.0672 0.2304 -0.1056 0.3584 -0.1056 z"/></g>
<g transform="translate(1083.117 625.462) scale(7.90000)"><path d="M 0.6784 0 c 0.1888 0 0.3616 0.0992 0.3616 0.304 c 0 0.2272 -0.1664 0.384 -0.3168 0.4736 c -0.1088 0.0672 -0.2336 0.1056 -0.3616 0.1056 c -0.1888 0 -0.3616 -0.0992 -0.3616 -0.304 c 0 -0.2272 0.1696 -0.384 0.32 -0.4736 c 0.1088 -0.0672 0.2304 -0.1056 0.3584 -0.1056 z"/></g>
<rect x="1081.06" y="616.71" width="12.32" height="0.79"/>
<rect x="1081.06" y="624.61" width="12.32" height="0.79"/>
<g transform="translate(1200.867 597.812) scale(7.90000)"><path d="M 0.6784 0 c 0.1888 0 0.3616 0.0992 0.3616 0.304 c 0 0.2272 -0.1664 0.384 -0.3168 0.4736 c -0.1088 0.0672 -0.2336 0.1056 -0.3616 0.1056 c -0.1888 0 -0.3616 -0.0992 -0.3616 -0.304 c 0 -0.2272 0.1696 -0.384 0.32 -0.4736 c 0.1088 -0.0672 0.2304 -0.1056 0.3584 -0.1056 z"/></g>
<g transform="translate(1318.617 570.162) scale(7.90000)"><path d="M 0.6784 0 c 0.1888 0 0.3616 0.0992 0.3616 0.304 c 0 0.2272 -0.1664 0.384 -0.3168 0.4736 c -0.1088 0.0672 -0.2336 0.1056 -0.3616 0.1056 c -0.1888 0 -0.3616 -0.0992 -0.3616 -0.304 c 0 -0.2272 0.1696 -0.384 0.32 -0.4736 c 0.1088 -0.0672 0.2304 -0.1056 0.3584 -0.1056 z"/></g>
<g transform="translate(1436.367 625.462) scale(7.90000)"><path d="M 0.6784 0 c 0.1888 0 0.3616 0.0992 0.3616 0.304 c 0 0.2272 -0.1664 0.384 -0.3168 0.4736 c -0.1088 0.0672 -0.2336 0.1056 -0.3616 0.1056 c -0.1888 0 -0.3616 -0.0992 -0.3616 -0.304 c 0 -0.2272 0.1696 -0.384 0.32 -0.4736 c 0.1088 -0.0672 0.2304 -0.1056 0.3584 -0.1056 z"/></g>
<rect x="1434.31" y="616.71" width="12.32" height="0.79"/>
<rect x="1434.31" y="624.61" width="12.32" height="0.79"/>
<g transform="translate(1554.117 597.812) scale(7.90000)"><path d="M 0.6784 0 c 0.1888 0 0.3616 0.0992 0.3616 0.304 c 0 0.2272 -0.1664 0.384 -0.3168 0.4736 c -0.1088 0.0672 -0.2336 0.1056 -0.3616 0.1056 c -0.1888 0 -0.3616 -0.0992 -0.3616 -0.304 c 0 -0.2272 0.1696 -0.384 0.32 -0.4736 c 0.1088 -0.0672 0.2304 -0.1056 0.3584 -0.1056 z"/></g>
<g transform="translate(1671.867 570.162) scale(7.90000)"><path d="M 0.6784 0 c 0.1888 0 0.3616 0.0992 0.3616 0.304 c 0 0.2272 -0.1664 0.384 -0.3168 0.4736 c -0.1088 0.0672 -0.2336 0.1056 -0.3616 0.1056 c -0.1888 0 -0.3616 -0.0992 -0.3616 -0.304 c 0 -0.2272 0.1696 -0.384 0.32 -0.4736 c 0.1088 -0.0672 0.2304 -0.1056 0.3584 -0.1056 z"/></g>
<g transform="translate(1789.617 625.462) scale(7.90000)"><path d="M 0.6784 0 c 0.1888 0 0.3616 0.0992 0.3616 0.304 c 0 0.2272 -0.1664 0.384 -0.3168 0.4736 c -0.1088 0.0672 -0.2336 0.1056 -0.3616 0.1056 c -0.1888 0 -0.3616 -0.0992 -0.3616 -0.304 c 0 -0.2272 0.1696 -0.384 0.32 -0.4736 c 0.1088 -0.0672 0.2304 -0.1056 0.3584 -0.1056 z"/></g>
<rect x="1787.56" y="616.71" width="12.32" height="0.79"/>
<rect x="1787.56" y="624.61" width="12.32" height="0.79"/>
<rect x="30.50" y="592.33" width="1.03" height="35.55"/>
<rect x="148.25" y="572.58" width="1.03" height="27.65"/>
<rect x="258.87" y="574.72" width="1.03" height="27.65"/>
<rect x="383.75" y="592.33" width="1.03" height="35.55"/>
<rect x="501.50" y="572.58" width="1.03" height="27.65"/>
<rect x="612.12" y="574.72" width="1.03" height="27.65"/>
<rect x="737.00" y="592.33" width="1.03" height="35.55"/>
<rect x="854.75" y="572.58" width="1.03" height="27.65"/>
<rect x="965.37" y="574.72" width="1.03" height="27.65"/>
<rect x="1090.25" y="592.33" width="1.03" height="35.55"/>
<rect x="1208.00" y="572.58" width="1.03" height="27.65"/>
<rect x="1318.62" y="574.72" width="1.03" height="27.65"/>
<rect x="1443.50" y="592.33" width="1.03" height="35.55"/>
<rect x="1561.25" y="572.58" width="1.03" height="27.65"/>
<rect x="1671.87" y="574.72" width="1.03" height="27.65"/>
<rect x="1796.75" y="592.33" width="1.03" height="35.55"/>
<circle cx="27.47" cy="636.85" r="1.58"/>
<circle cx="145.22" cy="613.15" r="1.58"/>
<circle cx="262.97" cy="565.75" r="1.58"/>
<circle cx="380.72" cy="636.85" r="1.58"/>
<circle cx="498.47" cy="613.15" r="1.58"/>
<circle cx="616.22" cy="565.75" r="1.58"/>
<circle cx="733.97" cy="636.85" r="1.58"/>
<circle cx="851.72" cy="613.15" r="1.58"/>
<circle cx="969.47" cy="565.75" r="1.58"/>
<circle cx="1087.22" cy="636.85" r="1.58"/>
<circle cx="1204.97" cy="613.15" r="1.58"/>
<circle cx="1322.72" cy="565.75" r="1.58"/>
<circle cx="1440.47" cy="636.85" r="1.58"/>
<circle cx="1558.22" cy="613.15" r="1.58"/>
<circle cx="1675.97" cy="565.75" r="1.58"/>
<circle cx="1793.72" cy="636.85" r="1.58"/>
</g>
<g fill="#111">
<rect x="0.00" y="715.60" width="1884.00" height="0.79"/>
<rect x="0.00" y="707.70" width="1884.00" height="0.79"/>
<rect x="0.00" y="699.80" width="1884.00" height="0.79"/>
<rect x="0.00" y="691.90" width="1884.00" height="0.79"/>
<rect x="0.00" y="684.00" width="1884.00" height="0.79"/>
<g transform="translate(92.949 732.262) scale(7.90000)"><path d="M 0.6784 0 c 0.1888 0 0.3616 0.0992 0.3616 0.304 c 0 0.2272 -0.1664 0.384 -0.3168 0.4736 c -0.1088 0.0672 -0.2336 0.1056 -0.3616 0.1056 c -0.1888 0 -0.3616 -0.0992 -0.3616 -0.304 c 0 -0.2272 0.1696 -0.384 0.32 -0.4736 c 0.1088 -0.0672 0.2304 -0.1056 0.3584 -0.1056 z"/></g>
<rect x="90.90" y="723.50" width="12.32" height="0.79"/>
<rect x="90.90" y="731.40" width="12.32" height="0.79"/>
<g transform="translate(210.699 704.612) scale(7.90000)"><path d="M 0.6784 0 c 0.1888 0 0.3616 0.0992 0.3616 0.304 c 0 0.2272 -0.1664 0.384 -0.3168 0.4736 c -0.1088 0.0672 -0.2336 0.1056 -0.3616 0.1056 c -0.1888 0 -0.3616 -0.0992 -0.3616 -0.304 c 0 -0.2272 0.1696 -0.384 0.32 -0.4736 c 0.1088 -0.0672 0.2304 -0.1056 0.3584 -0.1056 z"/></g>
<g transform="translate(328.449 676.962) scale(7.90000)"><path d="M 0.6784 0 c 0.1888 0 0.3616 0.0992 0.3616 0.304 c 0 0.2272 -0.1664 0.384 -0.3168 0.4736 c -0.1088 0.0672 -0.2336 0.1056 -0.3616 0.1056 c -0.1888 0 -0.3616 -0.0992 -0.3616 -0.304 c 0 -0.2272 0.1696 -0.384 0.32 -0.4736 c 0.1088 -0.0672 0.2304 -0.1056 0.3584 -0.1056 z"/></g>
<g transform="translate(446.199 732.262) scale(7.90000)"><path d="M 0.6784 0 c 0.1888 0 0.3616 0.0992 0.3616 0.304 c 0 0.2272 -0.1664 0.384 -0.3168 0.4736 c -0.1088 0.0672 -0.2336 0.1056 -0.3616 0.1056 c -0.1888 0 -0.3616 -0.0992 -0.3616 -0.304 c 0 -0.2272 0.1696 -0.384 0.32 -0.4736 c 0.1088 -0.0672 0.2304 -0.1056 0.3584 -0.1056 z"/></g>
<rect x="444.15" y="723.50" width="12.32" height="0.79"/>
<rect x="444.15" y="731.40" width="12.32" height="0.79"/>
<g transform="translate(563.949 704.612) scale(7.90000)"><path d="M 0.6784 0 c 0.1888 0 0.3616 0.0992 0.3616 0.304 c 0 0.2272 -0.1664 0.384 -0.3168 0.4736 c -0.1088 0.0672 -0.2336 0.1056 -0.3616 0.1056 c -0.1888 0 -0.3616 -0.0992 -0.3616 -0.304 c 0 -0.2272 0.1696 -0.384 0.32 -0.4736 c 0.1088 -0.0672 0.2304 -0.1056 0.3584 -0.1056 z"/></g>
<g transform="translate(681.699 676.962) scale(7.90000)"><path d="M 0.6784 0 c 0.1888 0 0.3616 0.0992 0.3616 0.304 c 0 0.2272 -0.1664 0.384 -0.3168 0.4736 c -0.1088 0.0672 -0.2336 0.1056 -0.3616 0.1056 c -0.1888 0 -0.3616 -0.0992 -0.3616 -0.304 c 0 -0.2272 0.1696 -0.384 0.32 -0.4736 c 0.1088 -0.0672 0.2304 -0.1056 0.3584 -0.1056 z"/></g>
<g transform="translate(799.449 732.262) scale(7.90000)"><path d="M 0.6784 0 c 0.1888 0 0.3616 0.0992 0.3616 0.304 c 0 0.2272 -0.1664 0.384 -0.3168 0.4736 c -0.1088 0.0672 -0.2336 0.1056 -0.3616 0.1056 c -0.1888 0 -0.3616 -0.0992 -0.3616 -0.304 c 0 -0.2272 0.1696 -0.384 0.32 -0.4736 c 0.1088 -0.0672 0.2304 -0.1056 0.3584 -0.1056 z"/></g>
<rect x="797.40" y="723.50" width="12.32" height="0.79"/>
<rect x="797.40" y="731.40" width="12.32" height="0.79"/>
<g transform="translate(917.199 704.612) scale(7.90000)"><path d="M 0.6784 0 c 0.1888 0 0.3616 0.0992 0.3616 0.304 c 0 0.2272 -0.1664 0.384 -0.3168 0.4736 c -0.1088 0.0672 -0.2336 0.1056 -0.3616 0.1056 c -0.1888 0 -0.3616 -0.0992 -0.3616 -0.304 c 0 -0.2272 0.1696 -0.384 0.32 -0.4736 c 0.1088 -0.0672 0.2304 -0.1056 0.3584 -0.1056 z"/></g>
<g transform="translate(1034.949 676.962) scale(7.90000)"><path d="M 0.6784 0 c 0.1888 0 0.3616 0.0992 0.3616 0.304 c 0 0.2272 -0.1664 0.384 -0.3168 0.4736 c -0.1088 0.0672 -0.2336 0.1056 -0.3616 0.1056 c -0.1888 0 -0.3616 -0.0992 -0.3616 -0.304 c 0 -0.2272 0.1696 -0.384 0.32 -0.4736 c 0.1088 -0.0672 0.2304 -0.1056 0.3584 -0.1056 z"/></g>
<g transform="translate(1152.699 732.262) scale(7.90000)"><path d="M 0.6784 0 c 0.1888 0 0.3616 0.0992 0.3616 0.304 c 0 0.2272 -0.1664 0.384 -0.3168 0.4736 c -0.1088 0.0672 -0.2336 0.1056 -0.3616 0.1056 c -0.1888 0 -0.3616 -0.0992 -0.3616 -0.304 c 0 -0.2272 0.1696 -0.384 0.32 -0.4736 c 0.1088 -0.0672 0.2304 -0.1056 0.3584 -0.1056 z"/></g>
<rect x="1150.65" y="723.50" width="12.32" height="0.79"/>
<rect x="1150.65" y="731.40" width="12.32" height="0.79"/>
<g transform="translate(1270.449 704.612) scale(7.90000)"><path d="M 0.6784 0 c 0.1888 0 0.3616 0.0992 0.3616 0.304 c 0 0.2272 -0.1664 0.384 -0.3168 0.4736 c -0.1088 0.0672 -0.2336 0.1056 -0.3616 0.1056 c -0.1888 0 -0.3616 -0.0992 -0.3616 -0.304 c 0 -0.2272 0.1696 -0.384 0.32 -0.4736 c 0.1088 -0.0672 0.2304 -0.1056 0.3584 -0.1056 z"/></g>
<g transform="translate(1388.199 676.962) scale(7.90000)"><path d="M 0.6784 0 c 0.1888 0 0.3616 0.0992 0.3616 0.304 c 0 0.2272 -0.1664 0.384 -0.3168 0.4736 c -0.1088 0.0672 -0.2336 0.1056 -0.3616 0.1056 c -0.1888 0 -0.3616 -0.0992 -0.3616 -0.304 c 0 -0.2272 0.1696 -0.384 0.32 -0.4736 c 0.1088 -0.0672 0.2304 -0.1056 0.3584 -0.1056 z"/></g>
<g transform="translate(1505.949 732.262) scale(7.90000)"><path d="M 0.6784 0 c 0.1888 0 0.3616 0.0992 0.3616 0.304 c 0 0.2272 -0.1664 0.384 -0.3168 0.4736 c -0.1088 0.0672 -0.2336 0.1056 -0.3616 0.1056 c -0.1888 0 -0.3616 -0.0992 -0.3616 -0.304 c 0 -0.2272 0.1696 -0.384 0.32 -0.4736 c 0.1088 -0.0672 0.2304 -0.1056 0.3584 -0.1056 z"/></g>
<rect x="1503.90" y="723.50" width="12.32" height="0.79"/>
<rect x="1503.90" y="731.40" width="12.32" height="0.79"/>
<g transform="translate(1623.699 704.612) scale(7.90000)"><path d="M 0.6784 0 c 0.1888 0 0.3616 0.0992 0.3616 0.304 c 0 0.2272 -0.1664 0.384 -0.3168 0.4736 c -0.1088 0.0672 -0.2336 0.1056 -0.3616 0.1056 c -0.1888 0 -0.3616 -0.0992 -0.3616 -0.304 c 0 -0.2272 0.1696 -0.384 0.32 -0.4736 c 0.1088 -0.0672 0.2304 -0.1056 0.3584 -0.1056 z"/></g>
<g transform="translate(1741.449 676.962) scale(7.90000)"><path d="M 0.6784 0 c 0.1888 0 0.3616 0.0992 0.3616 0.304 c 0 0.2272 -0.1664 0.384 -0.3168 0.4736 c -0.1088 0.0672 -0.2336 0.1056 -0.3616 0.1056 c -0.1888 0 -0.3616 -0.0992 -0.3616 -0.304 c 0 -0.2272 0.1696 -0.384 0.32 -0.4736 c 0.1088 -0.0672 0.2304 -0.1056 0.3584 -0.1056 z"/></g>
<rect x="100.08" y="699.13" width="1.03" height="35.55"/>
<rect x="217.83" y="679.38" width="1.03" height="27.65"/>
<rect x="328.45" y="681.52" width="1.03" height="27.65"/>
<rect x="453.33" y="699.13" width="1.03" height="35.55"/>
<rect x="571.08" y="679.38" width="1.03" height="27.65"/>
<rect x="681.70" y="681.52" width="1.03" height="27.65"/>
<rect x="806.58" y="699.13" width="1.03" height="35.55"/>
<rect x="924.33" y="679.38" width="1.03" height="27.65"/>
<rect x="1034.95" y="681.52" width="1.03" height="27.65"/>
<rect x="1159.83" y="699.13" width="1.03" height="35.55"/>
<rect x="1277.58" y="679.38" width="1.03" height="27.65"/>
<rect x="1388.20" y="681.52" width="1.03" height="27.65"/>
<rect x="1513.08" y="699.13" width="1.03" height="35.55"/>
<rect x="1630.83" y="679.38" width="1.03" height="27.65"/>
<rect x="1741.45" y="681.52" width="1.03" height="27.65"/>
<circle cx="97.06" cy="743.65" r="1.58"/>
<circle cx="214.81" cy="719.95" r="1.58"/>
<circle cx="332.56" cy="672.55" r="1.58"/>
<circle cx="450.31" cy="743.65" r="1.58"/>
<circle cx="568.06" cy="719.95" r="1.58"/>
<circle cx="685.81" cy="672.55" r="1.58"/>
<circle cx="803.56" cy="743.65" r="1.58"/>
<circle cx="921.31" cy="719.95" r="1.58"/>
<circle cx="1039.06" cy="672.55" r="1.58"/>
<circle cx="1156.81" cy="743.65" r="1.58"/>
<circle cx="1274.56" cy="719.95" r="1.58"/>
<circle cx="1392.31" cy="672.55" r="1.58"/>
<circle cx="1510.06" cy="743.65" r="1.58"/>
<circle cx="1627.81" cy="719.95" r="1.58"/>
<circle cx="1745.56" cy="672.55" r="1.58"/>
<text x="1852.6" y="663.9" font-size="7.7" font-family="&#39;Crimson Pro Light&#39;, serif" fill="#8a8a8a">unit 400.0 ms · beat 0.400 s (150 bpm) × 1</text>
<rect x="1852.13" y="670.18" width="0.95" height="6.32"/>
<g transform="translate(1848.492 676.962) scale(7.90000)"><path d="M 0.6784 0 c 0.1888 0 0.3616 0.0992 0.3616 0.304 c 0 0.2272 -0.1664 0.384 -0.3168 0.4736 c -0.1088 0.0672 -0.2336 0.1056 -0.3616 0.1056 c -0.1888 0 -0.3616 -0.0992 -0.3616 -0.304 c 0 -0.2272 0.1696 -0.384 0.32 -0.4736 c 0.1088 -0.0672 0.2304 -0.1056 0.3584 -0.1056 z"/></g>
<rect x="1848.49" y="681.52" width="1.03" height="27.65"/>
<circle cx="1852.60" cy="672.55" r="1.58"/>
</g>
<g fill="#111">
<rect x="0.00" y="822.40" width="1884.00" height="0.79"/>
<rect x="0.00" y="814.50" width="1884.00" height="0.79"/>
<rect x="0.00" y="806.61" width="1884.00" height="0.79"/>
<rect x="0.00" y="798.71" width="1884.00" height="0.79"/>
<rect x="0.00" y="790.81" width="1884.00" height="0.79"/>
<text x="75.6" y="770.7" font-size="7.7" font-family="&#39;Crimson Pro Light&#39;, serif" fill="#8a8a8a">unit 750.0 ms · beat 0.750 s (80 bpm) × 1</text>
<rect x="75.17" y="776.98" width="0.95" height="6.32"/>
<g transform="translate(71.535 811.412) scale(7.90000)"><path d="M 0.6784 0 c 0.1888 0 0.3616 0.0992 0.3616 0.304 c 0 0.2272 -0.1664 0.384 -0.3168 0.4736 c -0.1088 0.0672 -0.2336 0.1056 -0.3616 0.1056 c -0.1888 0 -0.3616 -0.0992 -0.3616 -0.304 c 0 -0.2272 0.1696 -0.384 0.32 -0.4736 c 0.1088 -0.0672 0.2304 -0.1056 0.3584 -0.1056 z"/></g>
<g transform="translate(189.285 783.762) scale(7.90000)"><path d="M 0.6784 0 c 0.1888 0 0.3616 0.0992 0.3616 0.304 c 0 0.2272 -0.1664 0.384 -0.3168 0.4736 c -0.1088 0.0672 -0.2336 0.1056 -0.3616 0.1056 c -0.1888 0 -0.3616 -0.0992 -0.3616 -0.304 c 0 -0.2272 0.1696 -0.384 0.32 -0.4736 c 0.1088 -0.0672 0.2304 -0.1056 0.3584 -0.1056 z"/></g>
<g transform="translate(307.035 839.062) scale(7.90000)"><path d="M 0.6784 0 c 0.1888 0 0.3616 0.0992 0.3616 0.304 c 0 0.2272 -0.1664 0.384 -0.3168 0.4736 c -0.1088 0.0672 -0.2336 0.1056 -0.3616 0.1056 c -0.1888 0 -0.3616 -0.0992 -0.3616 -0.304 c 0 -0.2272 0.1696 -0.384 0.32 -0.4736 c 0.1088 -0.0672 0.2304 -0.1056 0.3584 -0.1056 z"/></g>
<rect x="304.98" y="830.31" width="12.32" height="0.79"/>
<rect x="304.98" y="838.21" width="12.32" height="0.79"/>
<g transform="translate(424.785 811.412) scale(7.90000)"><path d="M 0.6784 0 c 0.1888 0 0.3616 0.0992 0.3616 0.304 c 0 0.2272 -0.1664 0.384 -0.3168 0.4736 c -0.1088 0.0672 -0.2336 0.1056 -0.3616 0.1056 c -0.1888 0 -0.3616 -0.0992 -0.3616 -0.304 c 0 -0.2272 0.1696 -0.384 0.32 -0.4736 c 0.1088 -0.0672 0.2304 -0.1056 0.3584 -0.1056 z"/></g>
<g transform="translate(542.535 783.762) scale(7.90000)"><path d="M 0.6784 0 c 0.1888 0 0.3616 0.0992 0.3616 0.304 c 0 0.2272 -0.1664 0.384 -0.3168 0.4736 c -0.1088 0.0672 -0.2336 0.1056 -0.3616 0.1056 c -0.1888 0 -0.3616 -0.0992 -0.3616 -0.304 c 0 -0.2272 0.1696 -0.384 0.32 -0.4736 c 0.1088 -0.0672 0.2304 -0.1056 0.3584 -0.1056 z"/></g>
<g transform="translate(660.285 839.062) scale(7.90000)"><path d="M 0.6784 0 c 0.1888 0 0.3616 0.0992 0.3616 0.304 c 0 0.2272 -0.1664 0.384 -0.3168 0.4736 c -0.1088 0.0672 -0.2336 0.1056 -0.3616 0.1056 c -0.1888 0 -0.3616 -0.0992 -0.3616 -0.304 c 0 -0.2272 0.1696 -0.384 0.32 -0.4736 c 0.1088 -0.0672 0.2304 -0.1056 0.3584 -0.1056 z"/></g>
<rect x="658.23" y="830.31" width="12.32" height="0.79"/>
<rect x="658.23" y="838.21" width="12.32" height="0.79"/>
<g transform="translate(778.035 811.412) scale(7.90000)"><path d="M 0.6784 0 c 0.1888 0 0.3616 0.0992 0.3616 0.304 c 0 0.2272 -0.1664 0.384 -0.3168 0.4736 c -0.1088 0.0672 -0.2336 0.1056 -0.3616 0.1056 c -0.1888 0 -0.3616 -0.0992 -0.3616 -0.304 c 0 -0.2272 0.1696 -0.384 0.32 -0.4736 c 0.1088 -0.0672 0.2304 -0.1056 0.3584 -0.1056 z"/></g>
<g transform="translate(895.785 783.762) scale(7.90000)"><path d="M 0.6784 0 c 0.1888 0 0.3616 0.0992 0.3616 0.304 c 0 0.2272 -0.1664 0.384 -0.3168 0.4736 c -0.1088 0.0672 -0.2336 0.1056 -0.3616 0.1056 c -0.1888 0 -0.3616 -0.0992 -0.3616 -0.304 c 0 -0.2272 0.1696 -0.384 0.32 -0.4736 c 0.1088 -0.0672 0.2304 -0.1056 0.3584 -0.1056 z"/></g>
<g transform="translate(1013.535 839.062) scale(7.90000)"><path d="M 0.6784 0 c 0.1888 0 0.3616 0.0992 0.3616 0.304 c 0 0.2272 -0.1664 0.384 -0.3168 0.4736 c -0.1088 0.0672 -0.2336 0.1056 -0.3616 0.1056 c -0.1888 0 -0.3616 -0.0992 -0.3616 -0.304 c 0 -0.2272 0.1696 -0.384 0.32 -0.4736 c 0.1088 -0.0672 0.2304 -0.1056 0.3584 -0.1056 z"/></g>
<rect x="1011.48" y="830.31" width="12.32" height="0.79"/>
<rect x="1011.48" y="838.21" width="12.32" height="0.79"/>
<g transform="translate(1131.285 811.412) scale(7.90000)"><path d="M 0.6784 0 c 0.1888 0 0.3616 0.0992 0.3616 0.304 c 0 0.2272 -0.1664 0.384 -0.3168 0.4736 c -0.1088 0.0672 -0.2336 0.1056 -0.3616 0.1056 c -0.1888 0 -0.3616 -0.0992 -0.3616 -0.304 c 0 -0.2272 0.1696 -0.384 0.32 -0.4736 c 0.1088 -0.0672 0.2304 -0.1056 0.3584 -0.1056 z"/></g>
<g transform="translate(1249.035 783.762) scale(7.90000)"><path d="M 0.6784 0 c 0.1888 0 0.3616 0.0992 0.3616 0.304 c 0 0.2272 -0.1664 0.384 -0.3168 0.4736 c -0.1088 0.0672 -0.2336 0.1056 -0.3616 0.1056 c -0.1888 0 -0.3616 -0.0992 -0.3616 -0.304 c 0 -0.2272 0.1696 -0.384 0.32 -0.4736 c 0.1088 -0.0672 0.2304 -0.1056 0.3584 -0.1056 z"/></g>
<g transform="translate(1366.785 839.062) scale(7.90000)"><path d="M 0.6784 0 c 0.1888 0 0.3616 0.0992 0.3616 0.304 c 0 0.2272 -0.1664 0.384 -0.3168 0.4736 c -0.1088 0.0672 -0.2336 0.1056 -0.3616 0.1056 c -0.1888 0 -0.3616 -0.0992 -0.3616 -0.304 c 0 -0.2272 0.1696 -0.384 0.32 -0.4736 c 0.1088 -0.0672 0.2304 -0.1056 0.3584 -0.1056 z"/></g>
<rect x="1364.73" y="830.31" width="12.32" height="0.79"/>
<rect x="1364.73" y="838.21" width="12.32" height="0.79"/>
<g transform="translate(1484.535 811.412) scale(7.90000)"><path d="M 0.6784 0 c 0.1888 0 0.3616 0.0992 0.3616 0.304 c 0 0.2272 -0.1664 0.384 -0.3168 0.4736 c -0.1088 0.0672 -0.2336 0.1056 -0.3616 0.1056 c -0.1888 0 -0.3616 -0.0992 -0.3616 -0.304 c 0 -0.2272 0.1696 -0.384 0.32 -0.4736 c 0.1088 -0.0672 0.2304 -0.1056 0.3584 -0.1056 z"/></g>
<g transform="translate(1602.285 783.762) scale(7.90000)"><path d="M 0.6784 0 c 0.1888 0 0.3616 0.0992 0.3616 0.304 c 0 0.2272 -0.1664 0.384 -0.3168 0.4736 c -0.1088 0.0672 -0.2336 0.1056 -0.3616 0.1056 c -0.1888 0 -0.3616 -0.0992 -0.3616 -0.304 c 0 -0.2272 0.1696 -0.384 0.32 -0.4736 c 0.1088 -0.0672 0.2304 -0.1056 0.3584 -0.1056 z"/></g>
<g transform="translate(1720.035 839.062) scale(7.90000)"><path d="M 0.6784 0 c 0.1888 0 0.3616 0.0992 0.3616 0.304 c 0 0.2272 -0.1664 0.384 -0.3168 0.4736 c -0.1088 0.0672 -0.2336 0.1056 -0.3616 0.1056 c -0.1888 0 -0.3616 -0.0992 -0.3616 -0.304 c 0 -0.2272 0.1696 -0.384 0.32 -0.4736 c 0.1088 -0.0672 0.2304 -0.1056 0.3584 -0.1056 z"/></g>
<rect x="1717.98" y="830.31" width="12.32" height="0.79"/>
<rect x="1717.98" y="838.21" width="12.32" height="0.79"/>
<g transform="translate(1837.785 811.412) scale(7.90000)"><path d="M 0.6784 0 c 0.1888 0 0.3616 0.0992 0.3616 0.304 c 0 0.2272 -0.1664 0.384 -0.3168 0.4736 c -0.1088 0.0672 -0.2336 0.1056 -0.3616 0.1056 c -0.1888 0 -0.3616 -0.0992 -0.3616 -0.304 c 0 -0.2272 0.1696 -0.384 0.32 -0.4736 c 0.1088 -0.0672 0.2304 -0.1056 0.3584 -0.1056 z"/></g>
<rect x="78.66" y="786.18" width="1.03" height="27.65"/>
<rect x="189.28" y="788.32" width="1.03" height="27.65"/>
<rect x="314.16" y="805.93" width="1.03" height="35.55"/>
<rect x="431.91" y="786.18" width="1.03" height="27.65"/>
<rect x="542.53" y="788.32" width="1.03" height="27.65"/>
<rect x="667.41" y="805.93" width="1.03" height="35.55"/>
<rect x="785.16" y="786.18" width="1.03" height="27.65"/>
<rect x="895.78" y="788.32" width="1.03" height="27.65"/>
<rect x="1020.66" y="805.93" width="1.03" height="35.55"/>
<rect x="1138.41" y="786.18" width="1.03" height="27.65"/>
<rect x="1249.03" y="788.32" width="1.03" height="27.65"/>
<rect x="1373.91" y="805.93" width="1.03" height="35.55"/>
<rect x="1491.66" y="786.18" width="1.03" height="27.65"/>
<rect x="1602.28" y="788.32" width="1.03" height="27.65"/>
<rect x="1727.16" y="805.93" width="1.03" height="35.55"/>
<rect x="1844.91" y="786.18" width="1.03" height="27.65"/>
<circle cx="75.64" cy="826.75" r="1.58"/>
<circle cx="193.39" cy="779.35" r="1.58"/>
<circle cx="311.14" cy="850.45" r="1.58"/>
<circle cx="428.89" cy="826.75" r="1.58"/>
<circle cx="546.64" cy="779.35" r="1.58"/>
<circle cx="664.39" cy="850.45" r="1.58"/>
<circle cx="782.14" cy="826.75" r="1.58"/>
<circle cx="899.89" cy="779.35" r="1.58"/>
<circle cx="1017.64" cy="850.45" r="1.58"/>
<circle cx="1135.39" cy="826.75" r="1.58"/>
<circle cx="1253.14" cy="779.35" r="1.58"/>
<circle cx="1370.89" cy="850.45" r="1.58"/>
<circle cx="1488.64" cy="826.75" r="1.58"/>
<circle cx="1606.39" cy="779.35" r="1.58"/>
<circle cx="1724.14" cy="850.45" r="1.58"/>
<circle cx="1841.89" cy="826.75" r="1.58"/>
</g>
<g fill="#111">
<rect x="0.00" y="929.20" width="1884.00" height="0.79"/>
<rect x="0.00" y="921.30" width="1884.00" height="0.79"/>
<rect x="0.00" y="913.40" width="1884.00" height="0.79"/>
<rect x="0.00" y="905.50" width="1884.00" height="0.79"/>
<rect x="0.00" y="897.61" width="1884.00" height="0.79"/>
<text x="5.0" y="877.5" font-size="7.7" font-family="&#39;Crimson Pro Light&#39;, serif" fill="#8a8a8a">unit 750.0 ms · beat 0.750 s (80 bpm) × 1</text>
<rect x="4.52" y="883.78" width="0.95" height="6.32"/>
<g transform="translate(0.885 918.212) scale(7.90000)"><path d="M 0.6784 0 c 0.1888 0 0.3616 0.0992 0.3616 0.304 c 0 0.2272 -0.1664 0.384 -0.3168 0.4736 c -0.1088 0.0672 -0.2336 0.1056 -0.3616 0.1056 c -0.1888 0 -0.3616 -0.0992 -0.3616 -0.304 c 0 -0.2272 0.1696 -0.384 0.32 -0.4736 c 0.1088 -0.0672 0.2304 -0.1056 0.3584 -0.1056 z"/></g>
<g transform="translate(118.635 890.562) scale(7.90000)"><path d="M 0.6784 0 c 0.1888 0 0.3616 0.0992 0.3616 0.304 c 0 0.2272 -0.1664 0.384 -0.3168 0.4736 c -0.1088 0.0672 -0.2336 0.1056 -0.3616 0.1056 c -0.1888 0 -0.3616 -0.0992 -0.3616 -0.304 c 0 -0.2272 0.1696 -0.384 0.32 -0.4736 c 0.1088 -0.0672 0.2304 -0.1056 0.3584 -0.1056 z"/></g>
<g transform="translate(236.385 945.862) scale(7.90000)"><path d="M 0.6784 0 c 0.1888 0 0.3616 0.0992 0.3616 0.304 c 0 0.2272 -0.1664 0.384 -0.3168 0.4736 c -0.1088 0.0672 -0.2336 0.1056 -0.3616 0.1056 c -0.1888 0 -0.3616 -0.0992 -0.3616 -0.304 c 0 -0.2272 0.1696 -0.384 0.32 -0.4736 c 0.1088 -0.0672 0.2304 -0.1056 0.3584 -0.1056 z"/></g>
<rect x="234.33" y="937.11" width="12.32" height="0.79"/>
<rect x="234.33" y="945.00" width="12.32" height="0.79"/>
<g transform="translate(354.135 918.212) scale(7.90000)"><path d="M 0.6784 0 c 0.1888 0 0.3616 0.0992 0.3616 0.304 c 0 0.2272 -0.1664 0.384 -0.3168 0.4736 c -0.1088 0.0672 -0.2336 0.1056 -0.3616 0.1056 c -0.1888 0 -0.3616 -0.0992 -0.3616 -0.304 c 0 -0.2272 0.1696 -0.384 0.32 -0.4736 c 0.1088 -0.0672 0.2304 -0.1056 0.3584 -0.1056 z"/></g>
<g transform="translate(471.885 890.562) scale(7.90000)"><path d="M 0.6784 0 c 0.1888 0 0.3616 0.0992 0.3616 0.304 c 0 0.2272 -0.1664 0.384 -0.3168 0.4736 c -0.1088 0.0672 -0.2336 0.1056 -0.3616 0.1056 c -0.1888 0 -0.3616 -0.0992 -0.3616 -0.304 c 0 -0.2272 0.1696 -0.384 0.32 -0.4736 c 0.1088 -0.0672 0.2304 -0.1056 0.3584 -0.1056 z"/></g>
<g transform="translate(589.635 945.862) scale(7.90000)"><path d="M 0.6784 0 c 0.1888 0 0.3616 0.0992 0.3616 0.304 c 0 0.2272 -0.1664 0.384 -0.3168 0.4736 c -0.1088 0.0672 -0.2336 0.1056 -0.3616 0.1056 c -0.1888 0 -0.3616 -0.0992 -0.3616 -0.304 c 0 -0.2272 0.1696 -0.384 0.32 -0.4736 c 0.1088 -0.0672 0.2304 -0.1056 0.3584 -0.1056 z"/></g>
<rect x="587.58" y="937.11" width="12.32" height="0.79"/>
<rect x="587.58" y="945.00" width="12.32" height="0.79"/>
<g transform="translate(707.385 918.212) scale(7.90000)"><path d="M 0.6784 0 c 0.1888 0 0.3616 0.0992 0.3616 0.304 c 0 0.2272 -0.1664 0.384 -0.3168 0.4736 c -0.1088 0.0672 -0.2336 0.1056 -0.3616 0.1056 c -0.1888 0 -0.3616 -0.0992 -0.3616 -0.304 c 0 -0.2272 0.1696 -0.384 0.32 -0.4736 c 0.1088 -0.0672 0.2304 -0.1056 0.3584 -0.1056 z"/></g>
<g transform="translate(825.135 890.562) scale(7.90000)"><path d="M 0.6784 0 c 0.1888 0 0.3616 0.0992 0.3616 0.304 c 0 0.2272 -0.1664 0.384 -0.3168 0.4736 c -0.1088 0.0672 -0.2336 0.1056 -0.3616 0.1056 c -0.1888 0 -0.3616 -0.0992 -0.3616 -0.304 c 0 -0.2272 0.1696 -0.384 0.32 -0.4736 c 0.1088 -0.0672 0.2304 -0.1056 0.3584 -0.1056 z"/></g>
<g transform="translate(942.885 945.862) scale(7.90000)"><path d="M 0.6784 0 c 0.1888 0 0.3616 0.0992 0.3616 0.304 c 0 0.2272 -0.1664 0.384 -0.3168 0.4736 c -0.1088 0.0672 -0.2336 0.1056 -0.3616 0.1056 c -0.1888 0 -0.3616 -0.0992 -0.3616 -0.304 c 0 -0.2272 0.1696 -0.384 0.32 -0.4736 c 0.1088 -0.0672 0.2304 -0.1056 0.3584 -0.1056 z"/></g>
<rect x="940.83" y="937.11" width="12.32" height="0.79"/>
<rect x="940.83" y="945.00" width="12.32" height="0.79"/>
<g transform="translate(1060.635 918.212) scale(7.90000)"><path d="M 0.6784 0 c 0.1888 0 0.3616 0.0992 0.3616 0.304 c 0 0.2272 -0.1664 0.384 -0.3168 0.4736 c -0.1088 0.0672 -0.2336 0.1056 -0.3616 0.1056 c -0.1888 0 -0.3616 -0.0992 -0.3616 -0.304 c 0 -0.2272 0.1696 -0.384 0.32 -0.4736 c 0.1088 -0.0672 0.2304 -0.1056 0.3584 -0.1056 z"/></g>
<g transform="translate(1178.385 890.562) scale(7.90000)"><path d="M 0.6784 0 c 0.1888 0 0.3616 0.0992 0.3616 0.304 c 0 0.2272 -0.1664 0.384 -0.3168 0.4736 c -0.1088 0.0672 -0.2336 0.1056 -0.3616 0.1056 c -0.1888 0 -0.3616 -0.0992 -0.3616 -0.304 c 0 -0.2272 0.1696 -0.384 0.32 -0.4736 c 0.1088 -0.0672 0.2304 -0.1056 0.3584 -0.1056 z"/></g>
<g transform="translate(1296.135 945.862) scale(7.90000)"><path d="M 0.6784 0 c 0.1888 0 0.3616 0.0992 0.3616 0.304 c 0 0.2272 -0.1664 0.384 -0.3168 0.4736 c -0.1088 0.0672 -0.2336 0.1056 -0.3616 0.1056 c -0.1888 0 -0.3616 -0.0992 -0.3616 -0.304 c 0 -0.2272 0.1696 -0.384 0.32 -0.4736 c 0.1088 -0.0672 0.2304 -0.1056 0.3584 -0.1056 z"/></g>
<rect x="1294.08" y="937.11" width="12.32" height="0.79"/>
<rect x="1294.08" y="945.00" width="12.32" height="0.79"/>
<g transform="translate(1413.885 918.212) scale(7.90000)"><path d="M 0.6784 0 c 0.1888 0 0.3616 0.0992 0.3616 0.304 c 0 0.2272 -0.1664 0.384 -0.3168 0.4736 c -0.1088 0.0672 -0.2336 0.1056 -0.3616 0.1056 c -0.1888 0 -0.3616 -0.0992 -0.3616 -0.304 c 0 -0.2272 0.1696 -0.384 0.32 -0.4736 c 0.1088 -0.0672 0.2304 -0.1056 0.3584 -0.1056 z"/></g>
<g transform="translate(1531.635 890.562) scale(7.90000)"><path d="M 0.6784 0 c 0.1888 0 0.3616 0.0992 0.3616 0.304 c 0 0.2272 -0.1664 0.384 -0.3168 0.4736 c -0.1088 0.0672 -0.2336 0.1056 -0.3616 0.1056 c -0.1888 0 -0.3616 -0.0992 -0.3616 -0.304 c 0 -0.2272 0.1696 -0.384 0.32 -0.4736 c 0.1088 -0.0672 0.2304 -0.1056 0.3584 -0.1056 z"/></g>
<g transform="translate(1649.385 945.862) scale(7.90000)"><path d="M 0.6784 0 c 0.1888 0 0.3616 0.0992 0.3616 0.304 c 0 0.2272 -0.1664 0.384 -0.3168 0.4736 c -0.1088 0.0672 -0.2336 0.1056 -0.3616 0.1056 c -0.1888 0 -0.3616 -0.0992 -0.3616 -0.304 c 0 -0.2272 0.1696 -0.384 0.32 -0.4736 c 0.1088 -0.0672 0.2304 -0.1056 0.3584 -0.1056 z"/></g>
<rect x="1647.33" y="937.11" width="12.32" height="0.79"/>
<rect x="1647.33" y="945.00" width="12.32" height="0.79"/>
<g transform="translate(1767.135 918.212) scale(7.90000)"><path d="M 0.6784 0 c 0.1888 0 0.3616 0.0992 0.3616 0.304 c 0 0.2272 -0.1664 0.384 -0.3168 0.4736 c -0.1088 0.0672 -0.2336 0.1056 -0.3616 0.1056 c -0.1888 0 -0.3616 -0.0992 -0.3616 -0.304 c 0 -0.2272 0.1696 -0.384 0.32 -0.4736 c 0.1088 -0.0672 0.2304 -0.1056 0.3584 -0.1056 z"/></g>
<rect x="8.01" y="892.98" width="1.03" height="27.65"/>
<rect x="118.63" y="895.12" width="1.03" height="27.65"/>
<rect x="243.51" y="912.73" width="1.03" height="35.55"/>
<rect x="361.26" y="892.98" width="1.03" height="27.65"/>
<rect x="471.88" y="895.12" width="1.03" height="27.65"/>
<rect x="596.76" y="912.73" width="1.03" height="35.55"/>
<rect x="714.51" y="892.98" width="1.03" height="27.65"/>
<rect x="825.13" y="895.12" width="1.03" height="27.65"/>
<rect x="950.01" y="912.73" width="1.03" height="35.55"/>
<rect x="1067.76" y="892.98" width="1.03" height="27.65"/>
<rect x="1178.38" y="895.12" width="1.03" height="27.65"/>
<rect x="1303.26" y="912.73" width="1.03" height="35.55"/>
<rect x="1421.01" y="892.98" width="1.03" height="27.65"/>
<rect x="1531.63" y="895.12" width="1.03" height="27.65"/>
<rect x="1656.51" y="912.73" width="1.03" height="35.55"/>
<rect x="1774.26" y="892.98" width="1.03" height="27.65"/>
<circle cx="4.99" cy="933.55" r="1.58"/>
<circle cx="122.74" cy="886.15" r="1.58"/>
<circle cx="240.49" cy="957.25" r="1.58"/>
<circle cx="358.24" cy="933.55" r="1.58"/>
<circle cx="475.99" cy="886.15" r="1.58"/>
<circle cx="593.74" cy="957.25" r="1.58"/>
<circle cx="711.49" cy="933.55" r="1.58"/>
<circle cx="829.24" cy="886.15" r="1.58"/>
<circle cx="946.99" cy="957.25" r="1.58"/>
<circle cx="1064.74" cy="933.55" r="1.58"/>
<circle cx="1182.49" cy="886.15" r="1.58"/>
<circle cx="1300.24" cy="957.25" r="1.58"/>
<circle cx="1417.99" cy="933.55" r="1.58"/>
<circle cx="1535.74" cy="886.15" r="1.58"/>
<circle cx="1653.49" cy="957.25" r="1.58"/>
<circle cx="1771.24" cy="933.55" r="1.58"/>
<text x="1852.6" y="877.5" font-size="7.7" font-family="&#39;Crimson Pro Light&#39;, serif" fill="#8a8a8a">unit 400.0 ms · beat 0.400 s (150 bpm) × 1</text>
<rect x="1852.13" y="883.78" width="0.95" height="6.32"/>
<g transform="translate(1848.492 874.762) scale(7.90000)"><path d="M 0.6784 0 c 0.1888 0 0.3616 0.0992 0.3616 0.304 c 0 0.2272 -0.1664 0.384 -0.3168 0.4736 c -0.1088 0.0672 -0.2336 0.1056 -0.3616 0.1056 c -0.1888 0 -0.3616 -0.0992 -0.3616 -0.304 c 0 -0.2272 0.1696 -0.384 0.32 -0.4736 c 0.1088 -0.0672 0.2304 -0.1056 0.3584 -0.1056 z"/></g>
<rect x="1846.44" y="889.70" width="12.32" height="0.79"/>
<rect x="1846.44" y="881.80" width="12.32" height="0.79"/>
<rect x="1848.49" y="879.32" width="1.03" height="35.55"/>
<circle cx="1852.60" cy="870.35" r="1.58"/>
</g>
<g fill="#111">
<rect x="0.00" y="1036.01" width="1884.00" height="0.79"/>
<rect x="0.00" y="1028.11" width="1884.00" height="0.79"/>
<rect x="0.00" y="1020.21" width="1884.00" height="0.79"/>
<rect x="0.00" y="1012.31" width="1884.00" height="0.79"/>
<rect x="0.00" y="1004.41" width="1884.00" height="0.79"/>
<text x="43.5" y="984.3" font-size="7.7" font-family="&#39;Crimson Pro Light&#39;, serif" fill="#8a8a8a">unit 750.0 ms · beat 0.750 s (80 bpm) × 1</text>
<rect x="43.06" y="990.58" width="0.95" height="6.32"/>
<g transform="translate(39.428 1025.012) scale(7.90000)"><path d="M 0.6784 0 c 0.1888 0 0.3616 0.0992 0.3616 0.304 c 0 0.2272 -0.1664 0.384 -0.3168 0.4736 c -0.1088 0.0672 -0.2336 0.1056 -0.3616 0.1056 c -0.1888 0 -0.3616 -0.0992 -0.3616 -0.304 c 0 -0.2272 0.1696 -0.384 0.32 -0.4736 c 0.1088 -0.0672 0.2304 -0.1056 0.3584 -0.1056 z"/></g>
<g transform="translate(157.178 997.362) scale(7.90000)"><path d="M 0.6784 0 c 0.1888 0 0.3616 0.0992 0.3616 0.304 c 0 0.2272 -0.1664 0.384 -0.3168 0.4736 c -0.1088 0.0672 -0.2336 0.1056 -0.3616 0.1056 c -0.1888 0 -0.3616 -0.0992 -0.3616 -0.304 c 0 -0.2272 0.1696 -0.384 0.32 -0.4736 c 0.1088 -0.0672 0.2304 -0.1056 0.3584 -0.1056 z"/></g>
<g transform="translate(274.928 1052.662) scale(7.90000)"><path d="M 0.6784 0 c 0.1888 0 0.3616 0.0992 0.3616 0.304 c 0 0.2272 -0.1664 0.384 -0.3168 0.4736 c -0.1088 0.0672 -0.2336 0.1056 -0.3616 0.1056 c -0.1888 0 -0.3616 -0.0992 -0.3616 -0.304 c 0 -0.2272 0.1696 -0.384 0.32 -0.4736 c 0.1088 -0.0672 0.2304 -0.1056 0.3584 -0.1056 z"/></g>
<rect x="272.87" y="1043.90" width="12.32" height="0.79"/>
<rect x="272.87" y="1051.81" width="12.32" height="0.79"/>
<g transform="translate(392.678 1025.012) scale(7.90000)"><path d="M 0.6784 0 c 0.1888 0 0.3616 0.0992 0.3616 0.304 c 0 0.2272 -0.1664 0.384 -0.3168 0.4736 c -0.1088 0.0672 -0.2336 0.1056 -0.3616 0.1056 c -0.1888 0 -0.3616 -0.0992 -0.3616 -0.304 c 0 -0.2272 0.1696 -0.384 0.32 -0.4736 c 0.1088 -0.0672 0.2304 -0.1056 0.3584 -0.1056 z"/></g>
<g transform="translate(510.428 997.362) scale(7.90000)"><path d="M 0.6784 0 c 0.1888 0 0.3616 0.0992 0.3616 0.304 c 0 0.2272 -0.1664 0.384 -0.3168 0.4736 c -0.1088 0.0672 -0.2336 0.1056 -0.3616 0.1056 c -0.1888 0 -0.3616 -0.0992 -0.3616 -0.304 c 0 -0.2272 0.1696 -0.384 0.32 -0.4736 c 0.1088 -0.0672 0.2304 -0.1056 0.3584 -0.1056 z"/></g>
<g transform="translate(628.178 1052.662) scale(7.90000)"><path d="M 0.6784 0 c 0.1888 0 0.3616 0.0992 0.3616 0.304 c 0 0.2272 -0.1664 0.384 -0.3168 0.4736 c -0.1088 0.0672 -0.2336 0.1056 -0.3616 0.1056 c -0.1888 0 -0.3616 -0.0992 -0.3616 -0.304 c 0 -0.2272 0.1696 -0.384 0.32 -0.4736 c 0.1088 -0.0672 0.2304 -0.1056 0.3584 -0.1056 z"/></g>
<rect x="626.12" y="1043.90" width="12.32" height="0.79"/>
<rect x="626.12" y="1051.81" width="12.32" height="0.79"/>
<g transform="translate(745.928 1025.012) scale(7.90000)"><path d="M 0.6784 0 c 0.1888 0 0.3616 0.0992 0.3616 0.304 c 0 0.2272 -0.1664 0.384 -0.3168 0.4736 c -0.1088 0.0672 -0.2336 0.1056 -0.3616 0.1056 c -0.1888 0 -0.3616 -0.0992 -0.3616 -0.304 c 0 -0.2272 0.1696 -0.384 0.32 -0.4736 c 0.1088 -0.0672 0.2304 -0.1056 0.3584 -0.1056 z"/></g>
<g transform="translate(863.678 997.362) scale(7.90000)"><path d="M 0.6784 0 c 0.1888 0 0.3616 0.0992 0.3616 0.304 c 0 0.2272 -0.1664 0.384 -0.3168 0.4736 c -0.1088 0.0672 -0.2336 0.1056 -0.3616 0.1056 c -0.1888 0 -0.3616 -0.0992 -0.3616 -0.304 c 0 -0.2272 0.1696 -0.384 0.32 -0.4736 c 0.1088 -0.0672 0.2304 -0.1056 0.3584 -0.1056 z"/></g>
<g transform="translate(981.428 1052.662) scale(7.90000)"><path d="M 0.6784 0 c 0.1888 0 0.3616 0.0992 0.3616 0.304 c 0 0.2272 -0.1664 0.384 -0.3168 0.4736 c -0.1088 0.0672 -0.2336 0.1056 -0.3616 0.1056 c -0.1888 0 -0.3616 -0.0992 -0.3616 -0.304 c 0 -0.2272 0.1696 -0.384 0.32 -0.4736 c 0.1088 -0.0672 0.2304 -0.1056 0.3584 -0.1056 z"/></g>
<rect x="979.37" y="1043.90" width="12.32" height="0.79"/>
<rect x="979.37" y="1051.81" width="12.32" height="0.79"/>
<g transform="translate(1099.178 1025.012) scale(7.90000)"><path d="M 0.6784 0 c 0.1888 0 0.3616 0.0992 0.3616 0.304 c 0 0.2272 -0.1664 0.384 -0.3168 0.4736 c -0.1088 0.0672 -0.2336 0.1056 -0.3616 0.1056 c -0.1888 0 -0.3616 -0.0992 -0.3616 -0.304 c 0 -0.2272 0.1696 -0.384 0.32 -0.4736 c 0.1088 -0.0672 0.2304 -0.1056 0.3584 -0.1056 z"/></g>
<g transform="translate(1216.928 997.362) scale(7.90000)"><path d="M 0.6784 0 c 0.1888 0 0.3616 0.0992 0.3616 0.304 c 0 0.2272 -0.1664 0.384 -0.3168 0.4736 c -0.1088 0.0672 -0.2336 0.1056 -0.3616 0.1056 c -0.1888 0 -0.3616 -0.0992 -0.3616 -0.304 c 0 -0.2272 0.1696 -0.384 0.32 -0.4736 c 0.1088 -0.0672 0.2304 -0.1056 0.3584 -0.1056 z"/></g>
<g transform="translate(1334.678 1052.662) scale(7.90000)"><path d="M 0.6784 0 c 0.1888 0 0.3616 0.0992 0.3616 0.304 c 0 0.2272 -0.1664 0.384 -0.3168 0.4736 c -0.1088 0.0672 -0.2336 0.1056 -0.3616 0.1056 c -0.1888 0 -0.3616 -0.0992 -0.3616 -0.304 c 0 -0.2272 0.1696 -0.384 0.32 -0.4736 c 0.1088 -0.0672 0.2304 -0.1056 0.3584 -0.1056 z"/></g>
<rect x="1332.62" y="1043.90" width="12.32" height="0.79"/>
<rect x="1332.62" y="1051.81" width="12.32" height="0.79"/>
<g transform="translate(1452.428 1025.012) scale(7.90000)"><path d="M 0.6784 0 c 0.1888 0 0.3616 0.0992 0.3616 0.304 c 0 0.2272 -0.1664 0.384 -0.3168 0.4736 c -0.1088 0.0672 -0.2336 0.1056 -0.3616 0.1056 c -0.1888 0 -0.3616 -0.0992 -0.3616 -0.304 c 0 -0.2272 0.1696 -0.384 0.32 -0.4736 c 0.1088 -0.0672 0.2304 -0.1056 0.3584 -0.1056 z"/></g>
<g transform="translate(1570.178 997.362) scale(7.90000)"><path d="M 0.6784 0 c 0.1888 0 0.3616 0.0992 0.3616 0.304 c 0 0.2272 -0.1664 0.384 -0.3168 0.4736 c -0.1088 0.0672 -0.2336 0.1056 -0.3616 0.1056 c -0.1888 0 -0.3616 -0.0992 -0.3616 -0.304 c 0 -0.2272 0.1696 -0.384 0.32 -0.4736 c 0.1088 -0.0672 0.2304 -0.1056 0.3584 -0.1056 z"/></g>
<g transform="translate(1687.928 1052.662) scale(7.90000)"><path d="M 0.6784 0 c 0.1888 0 0.3616 0.0992 0.3616 0.304 c 0 0.2272 -0.1664 0.384 -0.3168 0.4736 c -0.1088 0.0672 -0.2336 0.1056 -0.3616 0.1056 c -0.1888 0 -0.3616 -0.0992 -0.3616 -0.304 c 0 -0.2272 0.1696 -0.384 0.32 -0.4736 c 0.1088 -0.0672 0.2304 -0.1056 0.3584 -0.1056 z"/></g>
<rect x="1685.87" y="1043.90" width="12.32" height="0.79"/>
<rect x="1685.87" y="1051.81" width="12.32" height="0.79"/>
<g transform="translate(1805.678 1025.012) scale(7.90000)"><path d="M 0.6784 0 c 0.1888 0 0.3616 0.0992 0.3616 0.304 c 0 0.2272 -0.1664 0.384 -0.3168 0.4736 c -0.1088 0.0672 -0.2336 0.1056 -0.3616 0.1056 c -0.1888 0 -0.3616 -0.0992 -0.3616 -0.304 c 0 -0.2272 0.1696 -0.384 0.32 -0.4736 c 0.1088 -0.0672 0.2304 -0.1056 0.3584 -0.1056 z"/></g>
<rect x="46.56" y="999.78" width="1.03" height="27.65"/>
<rect x="157.18" y="1001.92" width="1.03" height="27.65"/>
<rect x="282.06" y="1019.53" width="1.03" height="35.55"/>
<rect x="399.81" y="999.78" width="1.03" height="27.65"/>
<rect x="510.43" y="1001.92" width="1.03" height="27.65"/>
<rect x="635.31" y="1019.53" width="1.03" height="35.55"/>
<rect x="753.06" y="999.78" width="1.03" height="27.65"/>
<rect x="863.68" y="1001.92" width="1.03" height="27.65"/>
<rect x="988.56" y="1019.53" width="1.03" height="35.55"/>
<rect x="1106.31" y="999.78" width="1.03" height="27.65"/>
<rect x="1216.93" y="1001.92" width="1.03" height="27.65"/>
<rect x="1341.81" y="1019.53" width="1.03" height="35.55"/>
<rect x="1459.56" y="999.78" width="1.03" height="27.65"/>
<rect x="1570.18" y="1001.92" width="1.03" height="27.65"/>
<rect x="1695.06" y="1019.53" width="1.03" height="35.55"/>
<rect x="1812.81" y="999.78" width="1.03" height="27.65"/>
<circle cx="43.54" cy="1040.35" r="1.58"/>
<circle cx="161.29" cy="992.95" r="1.58"/>
<circle cx="279.04" cy="1064.05" r="1.58"/>
<circle cx="396.79" cy="1040.35" r="1.58"/>
<circle cx="514.54" cy="992.95" r="1.58"/>
<circle cx="632.29" cy="1064.05" r="1.58"/>
<circle cx="750.04" cy="1040.35" r="1.58"/>
<circle cx="867.79" cy="992.95" r="1.58"/>
<circle cx="985.54" cy="1064.05" r="1.58"/>
<circle cx="1103.29" cy="1040.35" r="1.58"/>
<circle cx="1221.04" cy="992.95" r="1.58"/>
<circle cx="1338.79" cy="1064.05" r="1.58"/>
<circle cx="1456.54" cy="1040.35" r="1.58"/>
<circle cx="1574.29" cy="992.95" r="1.58"/>
<circle cx="1692.04" cy="1064.05" r="1.58"/>
<circle cx="1809.79" cy="1040.35" r="1.58"/>
</g>
</svg>
<line x1="36" y1="0" x2="36" y2="1080" stroke="#777" stroke-width="1.5" stroke-dasharray="4 4"/>
</svg>